<?xml version="1.0" encoding="UTF-8" standalone="no"?>
<svg
   xmlns:dc="http://purl.org/dc/elements/1.1/"
   xmlns:cc="http://creativecommons.org/ns#"
   xmlns:rdf="http://www.w3.org/1999/02/22-rdf-syntax-ns#"
   xmlns:svg="http://www.w3.org/2000/svg"
   xmlns="http://www.w3.org/2000/svg"
   xmlns:sodipodi="http://sodipodi.sourceforge.net/DTD/sodipodi-0.dtd"
   xmlns:inkscape="http://www.inkscape.org/namespaces/inkscape"
   width="1000"
   height="1000"
   id="login"
   version="1.1"
   inkscape:version="0.48.4 r9939"
   sodipodi:docname="Login.svg">
  <defs
     id="defs4" />
  <sodipodi:namedview
     id="base"
     pagecolor="#ffffff"
     bordercolor="#666666"
     borderopacity="1.0"
     inkscape:pageopacity="0.0"
     inkscape:pageshadow="2"
     inkscape:zoom="0.5"
     inkscape:cx="149.99999"
     inkscape:cy="366.12769"
     inkscape:document-units="px"
     inkscape:current-layer="layer1"
     showgrid="false"
     showguides="true"
     inkscape:window-width="1615"
     inkscape:window-height="1026"
     inkscape:window-x="65"
     inkscape:window-y="24"
     inkscape:window-maximized="1">
    <inkscape:grid
       type="xygrid"
       id="grid3759"
       empspacing="5"
       visible="true"
       enabled="true"
       snapvisiblegridlinesonly="true" />
  </sodipodi:namedview>
  <metadata
     id="metadata7">
    <rdf:RDF>
      <cc:Work
         rdf:about="">
        <dc:format>
          image/svg+xml
        </dc:format>
        <dc:type
           rdf:resource="http://purl.org/dc/dcmitype/StillImage" />
        <dc:title />
      </cc:Work>
    </rdf:RDF>
  </metadata>
  <g
     inkscape:label="Layer 1"
     inkscape:groupmode="layer"
     id="layer1"
     transform="translate(0,-52.3622)">
    <g
       id="g3031"
       transform="matrix(6.7987223,0,0,6.838984,-288.65178,-6294.7108)">
      <path
         inkscape:connector-curvature="0"
         id="path6122-5"
         d="m 84.139397,984.60007 0,0 c -1.023799,-0.3613 -2.201797,0.11828 -2.645375,1.06109 l -6.34122,14.92284 -0.139605,0.1009 4.537374,-0.2245 5.664709,-13.48642 c 0.444312,-0.94057 -0.05221,-2.01355 -1.076033,-2.37487"
         style="fill:#f2caa9;fill-opacity:1;fill-rule:evenodd" />
      <rect
         ry="6.0983114"
         y="972.30676"
         x="80.510262"
         height="48.786491"
         width="83.250046"
         id="rect3761"
         style="fill:#004455;fill-rule:evenodd" />
      <rect
         y="976.4502"
         x="84.146164"
         height="40.841175"
         width="76.153908"
         id="rect3763"
         style="fill:#ffffff;fill-rule:evenodd" />
      <rect
         y="976.40179"
         x="84.182533"
         height="7.3571496"
         width="76.119751"
         id="rect3765"
         style="fill:#5fbcd3;fill-rule:evenodd" />
      <rect
         ry="0"
         y="986.71991"
         x="87.385178"
         height="6.7418666"
         width="59.085285"
         id="rect3767"
         style="fill:#afe9af;fill-rule:evenodd" />
      <rect
         transform="matrix(0.92515759,-0.37958325,0.23018963,0.97314579,0,0)"
         rx="0.00064131588"
         y="995.62659"
         x="-96.434669"
         height="1.2371665"
         width="0.55255675"
         id="rect4685-4-9-5"
         style="fill:#ffffff;fill-rule:evenodd" />
      <path
         inkscape:connector-curvature="0"
         id="path6118"
         d="m 156.01645,1024.1646 7.8214,-5.9719 -3.57456,-5.3616 -1.39905,-7.6308 -11.47461,6.0253 8.62682,12.939"
         style="fill:#ffd7b7;fill-opacity:1;fill-rule:evenodd" />
      <path
         inkscape:connector-curvature="0"
         id="path6120"
         d="m 155.90538,1000.2933 0,0 c 1.19833,-0.54836 2.3901,-0.31179 2.68063,0.5096 l 4.16293,11.8145 c 0.291,0.8212 -0.47733,1.9556 -1.67534,2.5046 l 0,0 c -0.11416,0.046 -0.22654,0.095 -0.33684,0.1381 l 0.31404,0.8856 c 0.30464,0.8591 -0.49954,2.047 -1.75309,2.6206 l 0,0 c -0.8736,0.3985 -1.74191,0.4011 -2.29257,0.076 -0.34326,0.4093 -0.81892,0.7769 -1.37696,1.0327 l 0,0 c -1.35509,0.6217 -2.70323,0.3538 -3.03181,-0.5767 l -5.78541,-16.3683 c -0.32863,-0.9304 0.53975,-2.2123 1.89488,-2.8327 l 0,0 c 1.29228,-0.59169 2.57846,-0.37614 2.97981,0.4509 0.27749,-0.2565 0.61262,-0.4837 0.98849,-0.65574 l 0,0 c 1.25405,-0.57442 2.50079,-0.32606 2.80552,0.53334 l 0.03,0.084 c 0.12519,-0.08 0.25924,-0.1471 0.39702,-0.2118"
         style="fill:#f2caa9;fill-opacity:1;fill-rule:evenodd" />
      <rect
         transform="matrix(-0.99816247,0.0605944,0.03612795,0.99934717,0,0)"
         rx="0.00061006396"
         y="1003.4587"
         x="-50.368317"
         height="1.3081951"
         width="0.52563035"
         id="rect4685-4-9-5-1"
         style="fill:#ffffff;fill-rule:evenodd" />
      <path
         inkscape:connector-curvature="0"
         id="path6118-3"
         d="m 76.547698,1025.4105 -8.737704,-2.2105 1.9134,-6.8896 -0.673408,-8.0981 12.115493,0.5713 -4.617781,16.6269"
         style="fill:#ffd7b7;fill-opacity:1;fill-rule:evenodd" />
      <path
         inkscape:connector-curvature="0"
         id="path6120-1"
         d="m 70.513237,1002.0515 0,0 c -1.244469,0.019 -2.281088,0.8022 -2.337532,1.7383 l -0.796201,13.4628 c -0.05681,0.9364 0.942333,1.6886 2.186616,1.6698 l 0,0 c 0.116995,-0.013 0.232603,-0.015 0.345704,-0.021 l -0.06154,1.0102 c -0.05963,0.98 0.986203,1.7672 2.288096,1.7472 l 0,0 c 0.906864,-0.016 1.707143,-0.4146 2.130385,-0.9881 0.421284,0.2405 0.953831,0.3797 1.533447,0.3708 l 0,0 c 1.40767,-0.021 2.580206,-0.906 2.643611,-1.9664 l 1.119572,-18.66 c 0.06351,-1.06036 -1.065651,-1.90989 -2.473087,-1.88861 l 0,0 c -1.342108,0.0206 -2.471101,0.82646 -2.628048,1.81981 -0.321472,-0.1217 -0.688495,-0.1887 -1.078834,-0.1826 l 0,0 c -1.302479,0.019 -2.386663,0.8393 -2.446407,1.8191 l -0.0058,0.097 c -0.13572,-0.019 -0.276524,-0.022 -0.420022,-0.022"
         style="fill:#f2caa9;fill-opacity:1;fill-rule:evenodd" />
      <path
         inkscape:connector-curvature="0"
         id="path6204-9"
         d="m 76.88866,1018.0263 -1.020062,-0.2569 0.462756,-1.2342 3.70984,-9.9076 c 0.771589,-2.0607 2.285763,-1.9865 3.619357,-1.6508 l -4.379331,11.6957 c -0.36756,0.9824 -1.444719,1.5926 -2.39256,1.3538"
         style="fill:#f2caa9;fill-opacity:1;fill-rule:evenodd" />
      <path
         inkscape:connector-curvature="0"
         id="path6206-2"
         d="m 80.414772,1018.5737 -14.778526,-3.5183 -2.100155,7.1612 14.778508,3.518 2.100173,-7.1609"
         style="fill:#93aca7;fill-opacity:1;fill-rule:evenodd" />
      <path
         sodipodi:nodetypes="ccccc"
         inkscape:connector-curvature="0"
         id="path6208-2"
         d="m 80.735773,1021.4319 -17.387341,-2.9965 -2.304074,8.2715 17.604935,2.9649 2.08648,-8.2399"
         style="fill:#217867;fill-opacity:1;fill-rule:evenodd" />
      <rect
         ry="0"
         y="995.72833"
         x="87.349174"
         height="5.9927754"
         width="31.247536"
         id="rect3767-5"
         style="fill:#c6afe9;fill-rule:evenodd" />
      <path
         inkscape:connector-curvature="0"
         id="path6212-7"
         d="m 87.234218,994.03904 0,0 c -1.054829,-0.31721 -2.259301,0.15288 -2.704931,1.02618 l -2.457261,4.84915 -4.863736,3.26203 -7.034197,3.8322 3.732371,5.6286 5.006272,-3.234 c 1.820075,0.3601 3.681892,-1.7989 4.294149,-3.0072 l 5.157312,-10.17709 c 0.446101,-0.87787 -0.07337,-1.86222 -1.129979,-2.17987"
         style="fill:#f2caa9;fill-opacity:1;fill-rule:evenodd" />
      <rect
         ry="0"
         y="995.72833"
         x="119.34188"
         height="2.294136"
         width="26.379078"
         id="rect3767-5-7"
         style="fill:#beb7c8;fill-rule:evenodd" />
      <rect
         ry="0"
         y="999.42712"
         x="119.38535"
         height="2.294136"
         width="26.379078"
         id="rect3767-5-7-1"
         style="fill:#beb7c8;fill-rule:evenodd" />
      <rect
         ry="0"
         y="1003.9685"
         x="87.40097"
         height="2.294136"
         width="59.046989"
         id="rect3767-5-7-7"
         style="fill:#f4d7e3;fill-rule:evenodd" />
      <rect
         ry="0"
         y="1007.6896"
         x="87.321281"
         height="2.294136"
         width="59.177395"
         id="rect3767-5-7-7-3"
         style="fill:#f4d7e3;fill-rule:evenodd" />
      <rect
         ry="0"
         y="1011.4246"
         x="87.418983"
         height="2.294136"
         width="59.133923"
         id="rect3767-5-7-7-34"
         style="fill:#f4d7e3;fill-rule:evenodd" />
      <rect
         ry="0"
         y="980.07513"
         x="138.21178"
         height="0.71643335"
         width="8.2678232"
         id="rect3767-5-7-1-8"
         style="fill:#535d6c;fill-rule:evenodd" />
      <rect
         ry="0"
         y="981.55316"
         x="136.04492"
         height="0.71643335"
         width="10.441239"
         id="rect3767-5-7-1-8-0"
         style="fill:#535d6c;fill-rule:evenodd" />
      <path
         id="path4677"
         d="m 152.08107,987.4916 c -2.69007,0 -4.87078,-2.16211 -4.87078,-4.82877 0,-2.66689 2.18071,-4.82868 4.87078,-4.82868 2.69,0 4.87071,2.16179 4.87071,4.82868 0,2.66666 -2.18071,4.82877 -4.87071,4.82877"
         inkscape:connector-curvature="0"
         style="fill:#217867;fill-opacity:1;fill-rule:evenodd" />
      <path
         id="path4679"
         d="m 150.44257,984.00625 c -0.47988,0.30892 -0.67868,0.97267 -0.9602,1.75862 0.3621,0.25058 0.76017,0.45355 1.18493,0.59987 0.50058,0.17227 1.03834,0.0159 1.59818,0.0159 0.55499,0 1.08829,0.15909 1.5852,-0.0138 0.42805,-0.14591 0.82925,-0.34962 1.19399,-0.60136 -0.28083,-0.78978 -0.47639,-1.4598 -0.96198,-1.76139 -0.83112,-0.51602 -1.33133,-0.6394 -1.82184,-0.64588 -0.50157,-0.0138 -0.99303,0.11455 -1.81828,0.64588"
         inkscape:connector-curvature="0"
         style="fill:#ffffff;fill-opacity:1;fill-rule:evenodd" />
      <path
         id="path4681"
         d="m 151.57431,981.54702 1.37663,0 0,1.97391 c 0,0.6663 -1.37663,0.74292 -1.37663,0 l 0,-1.97391"
         inkscape:connector-curvature="0"
         style="fill:#fcd9ad;fill-opacity:1;fill-rule:evenodd" />
      <path
         id="path4683"
         d="m 152.95094,982.78631 0,-0.25228 -1.37663,0 0,0.92899 1.37663,-0.67671"
         inkscape:connector-curvature="0"
         style="fill:#e6c092;fill-opacity:1;fill-rule:evenodd" />
      <path
         id="path4685"
         d="m 152.26261,979.03688 c 2.91552,0 1.73361,3.81776 0,3.81776 -1.73353,0 -2.91549,-3.81776 0,-3.81776"
         inkscape:connector-curvature="0"
         style="fill:#f0ca9e;fill-opacity:1;fill-rule:evenodd" />
      <path
         id="path4687"
         d="m 152.26261,979.03688 c 2.91552,0 1.73361,3.81776 0,3.81776 l 0,-3.81776"
         inkscape:connector-curvature="0"
         style="fill:#fcd9ad;fill-opacity:1;fill-rule:evenodd" />
      <path
         id="path4689"
         d="m 152.23238,979.49543 c 0.32645,0 0.46462,-0.14336 0.68675,-0.0404 0.44332,0.20372 0.82481,0.77766 0.93041,1.16872 0.15857,0.58723 0.0692,0.53676 0.28055,0.0903 0.21141,-0.44749 -0.30643,-2.37677 -1.81843,-2.37677 -1.51208,0 -2.13104,1.48434 -1.91962,2.29516 0.21141,0.81081 0.21141,0.61826 0.34353,0 0.13214,-0.61529 0.41327,-1.1106 1.49681,-1.13844"
         inkscape:connector-curvature="0"
         style="fill:#77554c;fill-opacity:1;fill-rule:evenodd" />
      <path
         id="path4691"
         d="m 153.04219,979.48523 c -0.21436,0.18458 -0.94233,0.60019 -1.36681,0.61156 0.11126,-0.0999 0.18649,-0.19267 0.22321,-0.30573 0.037,-0.11243 -0.57711,0.42635 -0.82498,0.44951 0.12804,-0.15111 0.14961,-0.21413 0.1555,-0.29744 -0.40185,0.21785 -0.39494,0.63962 -0.39436,0.97872 6e-4,0.33952 -0.1847,0.2442 -0.15953,-0.12795 0.0251,-0.37225 -0.22495,-0.8276 -0.0994,-1.12165 0.12551,-0.29404 1.77983,-0.70115 2.30463,-0.70115 0.52487,0 0.95835,0.52018 1.08392,0.74643 0.12544,0.22624 -0.11813,0.86299 -0.11122,1.0666 0.006,0.2035 -0.15947,0.42634 -0.16146,0 -0.002,-0.43219 -0.25419,-0.88181 -0.64945,-1.29306"
         inkscape:connector-curvature="0"
         style="fill:#77554c;fill-opacity:1;fill-rule:evenodd" />
      <path
         id="path4693"
         d="m 154.13608,980.35034 c 0.10609,0.0224 0.14782,0.23985 0.0931,0.48342 -0.0548,0.24366 -0.18503,0.4223 -0.29112,0.39881 -0.10612,-0.0223 -0.14786,-0.23984 -0.0932,-0.48341 0.0547,-0.24355 0.18506,-0.42209 0.29118,-0.39882"
         inkscape:connector-curvature="0"
         style="fill:#fcd9ad;fill-opacity:1;fill-rule:evenodd" />
      <path
         id="path4695"
         d="m 150.39102,980.35034 c -0.10615,0.0224 -0.14784,0.23985 -0.0931,0.48342 0.0547,0.24366 0.185,0.4223 0.29112,0.39881 0.10614,-0.0223 0.14783,-0.23984 0.0931,-0.48341 -0.0547,-0.24355 -0.18497,-0.42209 -0.29109,-0.39882"
         inkscape:connector-curvature="0"
         style="fill:#f6d2a6;fill-opacity:1;fill-rule:evenodd" />
      <path
         id="path4697"
         d="m 152.1243,983.72975 c -0.27802,-0.29968 -0.80362,-0.37725 -0.76814,-0.17099 0.0353,0.20627 0.0565,0.33198 0,0.51402 -0.0565,0.18171 0.58929,0.12284 0.74683,-0.034 0.15753,-0.15643 0.1522,-0.20563 0.0213,-0.30913"
         inkscape:connector-curvature="0"
         style="fill:#253f5a;fill-opacity:1;fill-rule:evenodd" />
      <path
         id="path4699"
         d="m 152.31952,983.72975 c 0.27797,-0.29968 0.80363,-0.37725 0.7682,-0.17099 -0.0354,0.20627 -0.0565,0.33198 0,0.51402 0.0565,0.18171 -0.58941,0.12284 -0.74687,-0.034 -0.15751,-0.15643 -0.15221,-0.20563 -0.0213,-0.30913"
         inkscape:connector-curvature="0"
         style="fill:#315679;fill-opacity:1;fill-rule:evenodd" />
      <path
         id="path4701"
         d="m 152.00159,983.57597 c 0.11921,-0.0637 0.36102,-0.0553 0.48605,0 0.0953,0.0426 0.0386,0.17333 0.036,0.27747 -0.002,0.0967 0.0591,0.22519 -0.036,0.25781 -0.12921,0.0435 -0.36092,0.05 -0.48605,0 -0.0931,-0.0372 -0.0309,-0.16876 -0.0294,-0.26759 0.002,-0.0988 -0.0551,-0.22241 0.0294,-0.26769"
         inkscape:connector-curvature="0"
         style="fill:#253f5a;fill-opacity:1;fill-rule:evenodd" />
      <path
         id="path4703"
         d="m 150.67442,986.36709 c 0.31675,-0.67746 0.25337,-1.79836 -0.11892,-2.43224 0.20133,-0.12551 0.38232,-0.22455 0.54848,-0.30329 0.10814,0.68318 0.59868,1.41293 1.1615,1.69071 0.5591,-0.27598 1.04699,-0.99807 1.1593,-1.67743 0.16623,0.0776 0.3472,0.17396 0.54799,0.29447 -0.36996,0.63441 -0.43232,1.75181 -0.11633,2.42778 -0.49238,0.17375 -1.01945,0.26035 -1.59096,0.26375 -0.57156,-0.40275 -1.15714,-0.60721 -1.59106,-0.26375"
         inkscape:connector-curvature="0"
         style="fill:#315679;fill-opacity:1;fill-rule:evenodd" />
      <path
         id="path4705"
         d="m 152.00159,983.57597 c 0.064,-0.035 0.16343,-0.0467 0.26102,-0.0435 l 0,0.61423 c -0.0961,0 -0.19385,-0.0139 -0.26102,-0.035 -0.0931,-0.0372 -0.0309,-0.16865 -0.0294,-0.26758 0.002,-0.0988 -0.0551,-0.22232 0.0294,-0.26769"
         inkscape:connector-curvature="0"
         style="fill:#203346;fill-opacity:1;fill-rule:evenodd" />
      <path
         id="path4707"
         d="m 150.67442,986.36709 c 0.31675,-0.67746 0.25337,-1.79836 -0.11892,-2.43224 0.20133,-0.12551 0.38232,-0.22455 0.54848,-0.30329 0.1079,0.68202 0.59701,1.41027 1.15863,1.68922 l 0,1.31006 c -0.55612,0 -1.09042,-0.0935 -1.58819,-0.26375"
         inkscape:connector-curvature="0"
         style="fill:#253f5a;fill-opacity:1;fill-rule:evenodd" />
      <path
         inkscape:connector-curvature="0"
         id="path6122"
         d="m 138.43115,990.70438 0,0 c 0.8906,-0.79243 2.14124,-0.89487 2.80487,-0.24303 l 9.8494,10.61425 0.15929,0.027 -4.40815,1.8596 -8.83784,-9.62238 c -0.66362,-0.64872 -0.45838,-1.84498 0.4322,-2.6372"
         style="fill:#f2caa9;fill-opacity:1;fill-rule:evenodd" />
      <path
         inkscape:connector-curvature="0"
         id="path6212"
         d="m 137.84654,1000.6487 0,0 c 0.93151,-0.76634 2.20532,-0.88891 2.8532,-0.3015 l 3.58096,3.2684 5.48807,0.7392 7.71353,0.268 -2.15817,6.7877 -5.61769,-0.6488 c -1.65453,1.1532 -3.98522,0.046 -4.8774,-0.7674 l -7.51569,-6.8601 c -0.64949,-0.5911 -0.39992,-1.7177 0.53319,-2.4855"
         style="fill:#f2caa9;fill-opacity:1;fill-rule:evenodd" />
      <path
         inkscape:connector-curvature="0"
         id="path6204"
         d="m 153.82491,1017.6407 0.91345,-0.696 -0.75545,-0.9059 -6.05956,-7.2745 c -1.26023,-1.5129 -2.69365,-0.7575 -3.8878,0.1526 l 7.15304,8.5872 c 0.60054,0.7211 1.78763,0.7835 2.63632,0.1366"
         style="fill:#f2caa9;fill-opacity:1;fill-rule:evenodd" />
      <path
         inkscape:connector-curvature="0"
         id="path6206"
         d="m 150.58154,1019.7391 13.28444,-9.9015 3.82232,5.5223 -13.28446,9.9012 -3.8223,-5.522"
         style="fill:#93aca7;fill-opacity:1;fill-rule:evenodd" />
      <path
         sodipodi:nodetypes="ccccc"
         inkscape:connector-curvature="0"
         id="path6208-2-8"
         d="m 166.20616,1011.6039 -14.6569,11.7799 4.61822,6.675 14.78816,-11.9681 -4.74948,-6.4868"
         style="fill:#217867;fill-opacity:1;fill-rule:evenodd" />
    </g>
  </g>
</svg>
