<?xml version="1.0" encoding="UTF-8" standalone="no"?>
<svg
   xmlns:osb="http://www.openswatchbook.org/uri/2009/osb"
   xmlns:dc="http://purl.org/dc/elements/1.1/"
   xmlns:cc="http://creativecommons.org/ns#"
   xmlns:rdf="http://www.w3.org/1999/02/22-rdf-syntax-ns#"
   xmlns:svg="http://www.w3.org/2000/svg"
   xmlns="http://www.w3.org/2000/svg"
   xmlns:xlink="http://www.w3.org/1999/xlink"
   xmlns:sodipodi="http://sodipodi.sourceforge.net/DTD/sodipodi-0.dtd"
   xmlns:inkscape="http://www.inkscape.org/namespaces/inkscape"
   width="1000"
   height="1000"
   id="store"
   version="1.1"
   inkscape:version="0.48.4 r9939"
   sodipodi:docname="Store.svg">
  <defs
     id="defs6784">
    <linearGradient
       id="linearGradient3786-0"
       osb:paint="solid">
      <stop
         offset="0"
         id="stop3788-7"
         style="stop-color:#004455;stop-opacity:1" />
    </linearGradient>
    <linearGradient
       inkscape:collect="always"
       xlink:href="#linearGradient3786-0"
       id="linearGradient3982"
       gradientUnits="userSpaceOnUse"
       gradientTransform="matrix(0.03070992,0,0,0.03522733,174.90549,955.57747)"
       x1="250.92857"
       y1="406.64789"
       x2="531.92859"
       y2="406.64789" />
    <linearGradient
       inkscape:collect="always"
       xlink:href="#linearGradient3786-0"
       id="linearGradient4396"
       gradientUnits="userSpaceOnUse"
       gradientTransform="matrix(0.03070992,0,0,0.03522733,174.90549,955.57747)"
       x1="250.92857"
       y1="406.64789"
       x2="531.92859"
       y2="406.64789" />
    <linearGradient
       inkscape:collect="always"
       xlink:href="#linearGradient3786-0"
       id="linearGradient3332"
       gradientUnits="userSpaceOnUse"
       gradientTransform="matrix(0.03070992,0,0,0.03522733,174.90549,955.57747)"
       x1="250.92857"
       y1="406.64789"
       x2="531.92859"
       y2="406.64789" />
    <linearGradient
       inkscape:collect="always"
       xlink:href="#linearGradient3786-0"
       id="linearGradient3804"
       gradientUnits="userSpaceOnUse"
       gradientTransform="matrix(0.03070992,0,0,0.03522733,174.90549,955.57747)"
       x1="250.92857"
       y1="406.64789"
       x2="531.92859"
       y2="406.64789" />
    <linearGradient
       inkscape:collect="always"
       xlink:href="#linearGradient3786-0"
       id="linearGradient3992"
       gradientUnits="userSpaceOnUse"
       gradientTransform="matrix(0.03070992,0,0,0.03522733,174.90549,955.57747)"
       x1="250.92857"
       y1="406.64789"
       x2="531.92859"
       y2="406.64789" />
    <linearGradient
       inkscape:collect="always"
       xlink:href="#linearGradient3786-0"
       id="linearGradient3269"
       gradientUnits="userSpaceOnUse"
       gradientTransform="matrix(0.03070992,0,0,0.03522733,174.90549,955.57747)"
       x1="250.92857"
       y1="406.64789"
       x2="531.92859"
       y2="406.64789" />
    <linearGradient
       inkscape:collect="always"
       xlink:href="#linearGradient3786-0"
       id="linearGradient3412"
       gradientUnits="userSpaceOnUse"
       gradientTransform="matrix(0.03070992,0,0,0.03522733,174.90549,955.57747)"
       x1="250.92857"
       y1="406.64789"
       x2="531.92859"
       y2="406.64789" />
    <linearGradient
       inkscape:collect="always"
       xlink:href="#linearGradient3786-0"
       id="linearGradient3274"
       gradientUnits="userSpaceOnUse"
       gradientTransform="matrix(0.03070992,0,0,0.03522733,174.90549,955.57747)"
       x1="250.92857"
       y1="406.64789"
       x2="531.92859"
       y2="406.64789" />
    <linearGradient
       inkscape:collect="always"
       xlink:href="#linearGradient3786-0"
       id="linearGradient3557"
       gradientUnits="userSpaceOnUse"
       gradientTransform="matrix(0.03070992,0,0,0.03522733,174.90549,955.57747)"
       x1="250.92857"
       y1="406.64789"
       x2="531.92859"
       y2="406.64789" />
  </defs>
  <sodipodi:namedview
     id="base"
     pagecolor="#ffffff"
     bordercolor="#666666"
     borderopacity="1.0"
     inkscape:pageopacity="0.0"
     inkscape:pageshadow="2"
     inkscape:zoom="0.70000001"
     inkscape:cx="423.82378"
     inkscape:cy="503.84824"
     inkscape:document-units="px"
     inkscape:current-layer="layer1"
     showgrid="false"
     inkscape:window-width="1615"
     inkscape:window-height="1026"
     inkscape:window-x="65"
     inkscape:window-y="24"
     inkscape:window-maximized="1">
    <inkscape:grid
       type="xygrid"
       id="grid7974"
       empspacing="5"
       visible="true"
       enabled="true"
       snapvisiblegridlinesonly="true" />
  </sodipodi:namedview>
  <metadata
     id="metadata6787">
    <rdf:RDF>
      <cc:Work
         rdf:about="">
        <dc:format>
          image/svg+xml
        </dc:format>
        <dc:type
           rdf:resource="http://purl.org/dc/dcmitype/StillImage" />
        <dc:title />
      </cc:Work>
    </rdf:RDF>
  </metadata>
  <g
     inkscape:label="Layer 1"
     inkscape:groupmode="layer"
     id="layer1"
     transform="translate(0,-52.36218)">
    <g
       id="g3844"
       transform="matrix(0.76326092,0,0,0.70341636,97.677044,139.89415)">
      <path
         style="fill:#f4d7d7;fill-rule:evenodd"
         sodipodi:nodetypes="ccccc"
         inkscape:connector-curvature="0"
         id="path3261-2-8"
         d="m 41.514934,900.81086 c 103.434886,0 197.831776,0 301.266656,0 20.08445,-39.52537 39.04605,-175.09426 39.04605,-273.00159 -103.43489,0 -206.86977,0 -310.304658,0 0,97.90733 10.16084,213.71359 -30.008048,273.00159 z" />
      <path
         style="fill:#916f6f;fill-opacity:1;fill-rule:nonzero"
         id="path8271"
         d="m 163.48443,779.40422 -20.89485,0 0,-8.45216 20.89485,0 0,8.45216 z m 3.38535,-54.66619 14.77737,13.78546 -6.41505,5.97843 -14.7807,-13.78222 6.41838,-5.98167 z m 35.04772,33.30406 13.49654,12.18397 24.62261,-22.56903 6.364,6.03202 -30.93844,28.34736 -19.84131,-17.91735 6.2966,-6.07697 z m 8.07109,-49.9664 9.0701,0 0,19.49488 -9.0701,0 0,-19.49488 z m 43.82964,97.77583 14.78725,13.78218 -6.41509,5.9844 -14.77765,-13.79112 6.40549,-5.97546 z m 8.37216,-81.11349 6.41509,5.98167 -14.78725,13.78222 -6.40549,-5.97843 14.77765,-13.78546 z m 24.26715,54.66619 -20.89473,0 0,-8.45216 20.89473,0 0,8.45216 z m -67.40211,62.8795 -9.06684,0 0,-19.50093 9.06684,0 0,19.50093 z m -52.18565,-16.66562 -6.41838,-5.9844 14.7807,-13.78218 6.41505,5.98436 -14.77737,13.78222 z m 47.66015,22.86199 c 43.40067,0 78.58946,-32.81694 78.58946,-73.30056 0,-40.4894 -35.18879,-73.30927 -78.58946,-73.30927 -43.39735,0 -78.58927,32.81987 -78.58927,73.30927 0,40.48362 35.19192,73.30056 78.58927,73.30056"
         inkscape:connector-curvature="0" />
      <g
         transform="matrix(2.9586964,0,0,2.8345066,282.92442,-1990.0513)"
         id="g4169">
        <path
           style="fill:#42bfa6;fill-opacity:1;fill-rule:nonzero"
           d="m -17.021875,929.26137 c 0,2.00476 -1.602436,3.62999 -3.579077,3.62999 -1.976643,0 -3.579077,-1.62523 -3.579077,-3.62999 0,-2.00473 1.602434,-3.62999 3.579077,-3.62999 1.976641,0 3.579077,1.62526 3.579077,3.62999"
           id="path7597"
           inkscape:connector-curvature="0" />
        <path
           style="fill:#80e5ff;fill-opacity:1;fill-rule:nonzero"
           d="m -18.18259,929.17209 c 0,1.31441 -1.122728,2.37999 -2.507643,2.37999 -1.384922,0 -2.50765,-1.06558 -2.50765,-2.37999 0,-1.31439 1.122728,-2.37999 2.50765,-2.37999 1.384915,0 2.507643,1.0656 2.507643,2.37999"
           id="path7597-1"
           inkscape:connector-curvature="0" />
      </g>
    </g>
    <g
       id="g3831"
       transform="matrix(0.77130129,0,0,0.75146077,104.95757,83.678034)">
      <path
         style="fill:#87decd;fill-rule:evenodd"
         sodipodi:nodetypes="ccccc"
         inkscape:connector-curvature="0"
         id="path3261-7"
         d="m 392.44283,1040.2986 c 103.43489,0 177.74733,0 281.18222,0 100.42222,-19.7626 84.10361,-169.70223 84.10361,-267.60956 -103.43489,0 -206.86978,0 -310.30466,0 0,97.90733 45.44105,247.84696 -54.98117,267.60956 z" />
      <g
         id="g3112"
         transform="matrix(8.4823637,0,0,6.3028168,1311.3004,-3955.9767)">
        <path
           style="fill:#d87c56;fill-opacity:1;fill-rule:nonzero"
           id="path3866"
           d="m -93.261952,781.13633 20.589931,0 0,-19.88114 -20.589931,0 0,19.88114 z"
           inkscape:connector-curvature="0" />
        <path
           style="fill:#cb6a47;fill-opacity:1;fill-rule:nonzero"
           id="path3868"
           d="m -93.261952,766.28737 0,-5.03223 20.589931,0 -20.589931,5.03223"
           inkscape:connector-curvature="0" />
        <path
           style="fill:#d87c56;fill-opacity:1;fill-rule:nonzero"
           id="path3870"
           d="m -95.014546,761.7245 24.094914,0 0,-5.21331 -24.094914,0 0,5.21331 z"
           inkscape:connector-curvature="0" />
        <path
           style="fill:#fffeff;fill-opacity:1;fill-rule:nonzero"
           id="path3872"
           d="m -81.515704,779.19639 7.301661,0 0,-5.79271 -7.301661,0 0,5.79271 z"
           inkscape:connector-curvature="0" />
        <path
           style="fill:#b9e8eb;fill-opacity:1;fill-rule:nonzero"
           id="path3874"
           d="m -81.004683,775.63811 5.111155,0 0,-0.5791 -5.111155,0 0,0.5791 z"
           inkscape:connector-curvature="0" />
        <path
           style="fill:#b9e8eb;fill-opacity:1;fill-rule:nonzero"
           id="path3876"
           d="m -81.004683,776.96197 5.111155,0 0,-0.57909 -5.111155,0 0,0.57909 z"
           inkscape:connector-curvature="0" />
        <path
           style="fill:#b9e8eb;fill-opacity:1;fill-rule:nonzero"
           id="path3878"
           d="m -81.004683,778.28609 5.111155,0 0,-0.57919 -5.111155,0 0,0.57919 z"
           inkscape:connector-curvature="0" />
      </g>
      <path
         style="fill:#d35f5f;fill-opacity:1;fill-rule:nonzero"
         inkscape:connector-curvature="0"
         id="path7597-17"
         d="m 614.95533,785.10772 c 0,5.6825 -4.74113,10.28921 -10.5894,10.28921 -5.84831,0 -10.5894,-4.60671 -10.5894,-10.28921 0,-5.68243 4.74109,-10.28922 10.5894,-10.28922 5.84827,0 10.5894,4.60679 10.5894,10.28922" />
      <path
         style="fill:#fff6d5;fill-opacity:1;fill-rule:nonzero"
         inkscape:connector-curvature="0"
         id="path7597-1-0"
         d="m 611.52114,784.85464 c 0,3.72573 -3.32181,6.74613 -7.41936,6.74613 -4.09759,0 -7.41939,-3.0204 -7.41939,-6.74613 0,-3.72561 3.3218,-6.7461 7.41939,-6.7461 4.09755,0 7.41936,3.02049 7.41936,6.7461" />
    </g>
    <g
       id="g3806"
       transform="matrix(0.75663017,0,0,0.75574469,110.04146,103.46963)">
      <path
         style="fill:#e3dedb;fill-rule:evenodd"
         sodipodi:nodetypes="ccccc"
         inkscape:connector-curvature="0"
         id="path3261-2"
         d="m 354.26048,588.95314 c 103.4349,0 197.83175,0 301.26664,0 20.08444,-39.52525 39.04604,-175.09418 39.04604,-273.00151 -103.43488,0 -206.86977,0 -310.30464,0 0,97.90733 10.16084,213.71363 -30.00804,273.00151 z" />
      <g
         style="fill:#c87137"
         transform="matrix(11.280532,0,0,9.6263795,-23.857312,-8439.6445)"
         id="g3275">
        <path
           style="fill:#c87137;fill-opacity:1;fill-rule:nonzero"
           inkscape:connector-curvature="0"
           d="m 50.935552,926.18631 0.146949,-1.8556 -4.060873,0 0.14695,1.8556 3.766974,0"
           id="path8177" />
        <path
           style="fill:#c87137;fill-opacity:1;fill-rule:nonzero"
           inkscape:connector-curvature="0"
           d="m 51.701795,923.75103 3.695723,0 0.77547,-3.13016 -4.22691,0 -0.244283,3.13016"
           id="path8179" />
        <path
           style="fill:#c87137;fill-opacity:1;fill-rule:nonzero"
           inkscape:connector-curvature="0"
           d="m 42.85579,924.33071 0.465979,1.8556 3.273638,0 -0.145997,-1.8556 -3.59362,0"
           id="path8181" />
        <path
           style="fill:#c87137;fill-opacity:1;fill-rule:nonzero"
           inkscape:connector-curvature="0"
           d="m 55.248022,924.33071 -3.592984,0 -0.146632,1.8556 3.273636,0 0.46598,-1.8556"
           id="path8183" />
        <path
           style="fill:#c87137;fill-opacity:1;fill-rule:nonzero"
           inkscape:connector-curvature="0"
           d="m 58.177818,915.05477 c -0.187664,0 -0.342884,0.0684 -0.466935,0.15333 -0.07253,0.0404 -0.144087,0.10261 -0.21152,0.17272 -0.773241,0.80079 -1.546166,1.60685 -2.319725,2.40734 -0.08463,0.0878 -0.14441,0.16548 -0.18544,0.28129 l -2.841371,0 -0.159673,1.97139 4.329013,0 0.326979,-1.25153 c 0.617385,-0.63894 1.234455,-1.2999 1.851839,-1.87928 l 1.485095,0 c 1.121535,0 1.121535,-1.85526 0,-1.85526 l -1.808262,0"
           id="path8185" />
        <path
           style="fill:#c87137;fill-opacity:1;fill-rule:nonzero"
           inkscape:connector-curvature="0"
           d="m 46.683514,920.04084 4.737104,0 0.159036,-1.97139 -5.055815,0 0.159675,1.97139"
           id="path8187" />
        <path
           style="fill:#c87137;fill-opacity:1;fill-rule:nonzero"
           inkscape:connector-curvature="0"
           d="m 46.401698,923.75103 -0.243962,-3.13016 -4.226274,0 0.774833,3.13016 3.695403,0"
           id="path8189" />
        <path
           style="fill:#c87137;fill-opacity:1;fill-rule:nonzero"
           inkscape:connector-curvature="0"
           d="m 41.275271,918.06945 0.506059,1.97139 4.329966,0 -0.159674,-1.97139 -4.676351,0"
           id="path8191" />
        <path
           style="fill:#c87137;fill-opacity:1;fill-rule:nonzero"
           inkscape:connector-curvature="0"
           d="m 51.373223,920.62087 -4.642318,0 0.243967,3.13046 4.154386,0 0.243965,-3.13046"
           id="path8193" />
        <path
           style="fill:#c87137;fill-opacity:1;fill-rule:nonzero"
           inkscape:connector-curvature="0"
           d="m 45.05083,926.71041 c 0.833361,0 1.508951,0.69915 1.508951,1.56112 0,0.862 -0.67559,1.5608 -1.508951,1.5608 -0.833042,0 -1.508634,-0.6988 -1.508634,-1.5608 0,-0.86197 0.675592,-1.56112 1.508634,-1.56112"
           id="path8195" />
        <path
           style="fill:#c87137;fill-opacity:1;fill-rule:nonzero"
           inkscape:connector-curvature="0"
           d="m 53.052982,926.71041 c 0.833039,0 1.508951,0.69915 1.508951,1.56112 0,0.862 -0.675912,1.5608 -1.508951,1.5608 -0.833357,0 -1.50895,-0.6988 -1.50895,-1.5608 0,-0.86197 0.675593,-1.56112 1.50895,-1.56112"
           id="path8197" />
      </g>
      <path
         style="fill:#216778;fill-opacity:1;fill-rule:nonzero"
         inkscape:connector-curvature="0"
         id="path7597-17-4"
         d="m 553.26741,327.81466 c 0,5.68251 -4.74113,10.28921 -10.5894,10.28921 -5.84831,0 -10.5894,-4.6067 -10.5894,-10.28921 0,-5.68243 4.74109,-10.28921 10.5894,-10.28921 5.84827,0 10.5894,4.60678 10.5894,10.28921" />
      <path
         style="fill:#2c89a0;fill-opacity:1;fill-rule:nonzero"
         inkscape:connector-curvature="0"
         id="path7597-1-0-9"
         d="m 549.83321,327.56158 c 0,3.72573 -3.3218,6.74613 -7.41935,6.74613 -4.09759,0 -7.4194,-3.0204 -7.4194,-6.74613 0,-3.72561 3.32181,-6.74609 7.4194,-6.74609 4.09755,0 7.41935,3.02048 7.41935,6.74609" />
    </g>
    <g
       id="g3823"
       transform="matrix(0.73127865,0,0,0.73544598,147.92804,110.44776)">
      <path
         style="fill:#ffeeaa;fill-rule:evenodd"
         sodipodi:nodetypes="ccccc"
         inkscape:connector-curvature="0"
         id="path3261"
         d="m 662.14815,721.27317 c 103.43489,0 177.74733,0 281.18222,0 100.42223,-19.76263 84.10363,-169.70207 84.10363,-267.6094 -103.43491,0 -206.86979,0 -310.30468,0 0,97.90733 45.44105,247.84677 -54.98117,267.6094 z" />
      <g
         transform="matrix(11.252296,0,0,9.8398229,-156.93632,-8360.8268)"
         id="g3265">
        <rect
           style="fill:#5f8dd3;fill-rule:evenodd"
           id="rect8690"
           width="17.795803"
           height="13.054984"
           x="83.541428"
           y="900.02051"
           rx="1.4131649" />
        <rect
           style="fill:#214478;fill-rule:evenodd"
           id="rect8690-0"
           width="17.795803"
           height="3.1471832"
           x="83.551262"
           y="902.32849"
           rx="0.11066255" />
      </g>
      <path
         style="fill:#00aa88;fill-opacity:1;fill-rule:nonzero"
         inkscape:connector-curvature="0"
         id="path7597-17-6"
         d="m 895.45319,466.45814 c 0,5.6825 -4.74113,10.28921 -10.5894,10.28921 -5.84831,0 -10.5894,-4.60671 -10.5894,-10.28921 0,-5.68243 4.74109,-10.28922 10.5894,-10.28922 5.84827,0 10.5894,4.60679 10.5894,10.28922" />
      <path
         style="fill:#afe9dd;fill-opacity:1;fill-rule:nonzero"
         inkscape:connector-curvature="0"
         id="path7597-1-0-7"
         d="m 892.01899,466.20506 c 0,3.72573 -3.3218,6.74613 -7.41935,6.74613 -4.09759,0 -7.41939,-3.0204 -7.41939,-6.74613 0,-3.72561 3.3218,-6.74609 7.41939,-6.74609 4.09755,0 7.41935,3.02048 7.41935,6.74609" />
    </g>
    <g
       id="g3705"
       transform="matrix(0.76326092,0,0,0.75574469,117.74429,68.800503)">
      <path
         style="fill:#afc6e9;fill-rule:evenodd"
         sodipodi:nodetypes="ccccc"
         inkscape:connector-curvature="0"
         id="path3261-2-2"
         d="m -10.128707,498.6098 c 103.434887,0 197.831787,0 301.266677,0 20.0844,-39.5253 39.04601,-175.09422 39.04601,-273.00155 -103.43489,0 -206.86976,0 -310.304644,0 0,97.90733 10.160845,213.71363 -30.008043,273.00155 z" />
      <g
         transform="matrix(4.5776107,0,0,5.2250158,-687.57023,-4752.5578)"
         id="g3708">
        <g
           transform="matrix(2.9527212,0,0,2.2937092,109.12812,-1321.2465)"
           id="g3419">
          <rect
             style="fill:#003380;fill-rule:evenodd"
             id="rect8423"
             width="2.0973623"
             height="10.374049"
             x="25.354219"
             y="1000.1451"
             rx="0.27758601" />
          <rect
             style="fill:#003380;fill-rule:evenodd"
             id="rect8423-5"
             width="8.6648598"
             height="8.858737"
             x="22.028101"
             y="994.31714"
             rx="4.3324299"
             ry="4.4293685" />
          <rect
             style="fill:#afdde9;fill-rule:evenodd"
             id="rect8423-5-7"
             width="7.3174849"
             height="7.2268667"
             x="22.733532"
             y="995.05695"
             rx="3.6587424"
             ry="3.6134334" />
        </g>
        <g
           transform="translate(-0.06313453,-0.25253814)"
           id="g3618">
          <rect
             style="fill:#ffffff;fill-rule:evenodd"
             rx="0.0012943863"
             y="976.2262"
             x="187.79373"
             height="0.17214815"
             width="1.1152413"
             id="rect4685-7" />
          <rect
             style="fill:#ffffff;fill-rule:evenodd"
             rx="0.00017417909"
             y="975.56036"
             x="186.80568"
             height="1.2792927"
             width="0.15007246"
             id="rect4685-76" />
          <rect
             style="fill:url(#linearGradient3557);fill-opacity:1;fill-rule:evenodd"
             rx="0.13161391"
             y="964.97076"
             x="182.62682"
             height="9.8636513"
             width="8.5987759"
             id="rect3012-0" />
          <rect
             style="fill:#004455;fill-opacity:1;fill-rule:evenodd"
             rx="0"
             y="964.41321"
             x="188.15117"
             height="0.81311095"
             width="0.70884061"
             id="rect3016-7-8" />
          <rect
             style="fill:#004455;fill-opacity:1;fill-rule:evenodd"
             rx="0"
             y="964.36285"
             x="186.44019"
             height="0.81311095"
             width="0.70884061"
             id="rect3016-77-5" />
          <rect
             style="fill:#004455;fill-opacity:1;fill-rule:evenodd"
             rx="0"
             y="964.41321"
             x="184.64146"
             height="0.81311095"
             width="0.70884061"
             id="rect3016-76-8" />
          <rect
             style="fill:#004455;fill-opacity:1;fill-rule:evenodd"
             rx="0"
             y="964.41321"
             x="183.06209"
             height="0.81311095"
             width="0.70884061"
             id="rect3016-8-3" />
          <rect
             style="fill:#004455;fill-opacity:1;fill-rule:evenodd"
             rx="0"
             y="964.41321"
             x="189.73053"
             height="0.81311095"
             width="0.70884061"
             id="rect3016-74-1" />
          <rect
             style="fill:#004455;fill-opacity:1;fill-rule:evenodd"
             rx="0"
             y="974.72986"
             x="189.94989"
             height="0.81311095"
             width="0.70884061"
             id="rect3016-3-2" />
          <rect
             style="fill:#004455;fill-opacity:1;fill-rule:evenodd"
             rx="0"
             y="974.72986"
             x="188.45825"
             height="0.81311095"
             width="0.70884061"
             id="rect3016-4-3" />
          <rect
             style="fill:#004455;fill-opacity:1;fill-rule:evenodd"
             rx="0"
             y="974.78021"
             x="186.57179"
             height="0.81311095"
             width="0.70884061"
             id="rect3016-6-1" />
          <rect
             style="fill:#004455;fill-opacity:1;fill-rule:evenodd"
             rx="0"
             y="974.72986"
             x="184.81694"
             height="0.81311095"
             width="0.70884061"
             id="rect3016-33-1" />
          <rect
             style="fill:#004455;fill-opacity:1;fill-rule:evenodd"
             rx="0"
             y="974.62915"
             x="183.01822"
             height="0.81311095"
             width="0.70884061"
             id="rect3016-44-3" />
          <rect
             style="fill:#004455;fill-opacity:1;fill-rule:evenodd"
             rx="0"
             y="973.42145"
             x="181.9653"
             height="0.81311095"
             width="0.70884061"
             id="rect3016-67-2" />
          <rect
             style="fill:#004455;fill-opacity:1;fill-rule:evenodd"
             rx="0"
             y="971.81097"
             x="181.9653"
             height="0.81311095"
             width="0.70884061"
             id="rect3016-2-1" />
          <rect
             style="fill:#004455;fill-opacity:1;fill-rule:evenodd"
             rx="0"
             y="969.89868"
             x="181.92143"
             height="0.81311095"
             width="0.70884061"
             id="rect3016-28-1" />
          <rect
             style="fill:#004455;fill-opacity:1;fill-rule:evenodd"
             rx="0"
             y="968.18762"
             x="181.92143"
             height="0.81311095"
             width="0.70884061"
             id="rect3016-48-2" />
          <rect
             style="fill:#004455;fill-opacity:1;fill-rule:evenodd"
             rx="0"
             y="966.62756"
             x="182.00919"
             height="0.81311095"
             width="0.70884061"
             id="rect3016-1-7" />
          <rect
             style="fill:#004455;fill-opacity:1;fill-rule:evenodd"
             rx="0"
             y="965.31915"
             x="182.00919"
             height="0.81311095"
             width="0.70884061"
             id="rect3016-16-6" />
          <rect
             style="fill:#004455;fill-opacity:1;fill-rule:evenodd"
             rx="0"
             y="968.13727"
             x="191.04668"
             height="0.81311095"
             width="0.70884061"
             id="rect3016-24-6" />
          <rect
             style="fill:#004455;fill-opacity:1;fill-rule:evenodd"
             rx="0"
             y="966.62756"
             x="191.04668"
             height="0.81311095"
             width="0.70884061"
             id="rect3016-81-6" />
          <rect
             style="fill:#004455;fill-opacity:1;fill-rule:evenodd"
             rx="0"
             y="965.26874"
             x="191.04668"
             height="0.81311095"
             width="0.70884061"
             id="rect3016-47-3" />
          <rect
             style="fill:#004455;fill-opacity:1;fill-rule:evenodd"
             rx="0"
             y="969.94897"
             x="190.95894"
             height="0.81311095"
             width="0.70884061"
             id="rect3016-59-6" />
          <rect
             style="fill:#004455;fill-opacity:1;fill-rule:evenodd"
             rx="0"
             y="971.76068"
             x="191.00279"
             height="0.81311095"
             width="0.70884061"
             id="rect3016-13-9" />
          <rect
             style="fill:#004455;fill-opacity:1;fill-rule:evenodd"
             rx="0"
             y="973.47168"
             x="191.00279"
             height="0.81311095"
             width="0.70884061"
             id="rect3016-27-6" />
          <rect
             style="fill:#decd87;fill-rule:evenodd"
             y="965.86658"
             x="183.68906"
             height="7.7103658"
             width="6.7670221"
             id="rect4353-9" />
          <rect
             style="fill:#f4eed7;fill-rule:evenodd"
             y="967.99023"
             x="185.56621"
             height="0.66665655"
             width="0.61368763"
             id="rect4357-5" />
          <rect
             style="fill:#f4eed7;fill-rule:evenodd"
             y="967.98999"
             x="184.32722"
             height="0.65422189"
             width="0.57032722"
             id="rect4357-0-0" />
          <rect
             style="fill:#f4eed7;fill-rule:evenodd"
             y="966.55603"
             x="184.31586"
             height="0.70454657"
             width="0.61419833"
             id="rect4357-9-5" />
          <rect
             style="fill:#f4eed7;fill-rule:evenodd"
             y="967.97754"
             x="186.78351"
             height="0.70396066"
             width="0.61419833"
             id="rect4357-7-9" />
          <rect
             style="fill:#f4eed7;fill-rule:evenodd"
             y="966.55603"
             x="189.2403"
             height="0.70454657"
             width="0.62452799"
             id="rect4357-3-4" />
          <rect
             style="fill:#f4eed7;fill-rule:evenodd"
             y="966.58148"
             x="185.56595"
             height="0.70396066"
             width="0.61419833"
             id="rect4357-78-7" />
          <rect
             style="fill:#f4eed7;fill-rule:evenodd"
             y="967.97754"
             x="188.02274"
             height="0.70396066"
             width="0.59251803"
             id="rect4357-06-6" />
          <rect
             style="fill:#f4eed7;fill-rule:evenodd"
             y="966.58093"
             x="188.02325"
             height="0.69152617"
             width="0.60284758"
             id="rect4357-91-4" />
          <rect
             style="fill:#f4eed7;fill-rule:evenodd"
             y="966.58148"
             x="186.78351"
             height="0.67850566"
             width="0.61368763"
             id="rect4357-4-8" />
          <rect
             style="fill:#f4eed7;fill-rule:evenodd"
             y="967.97809"
             x="189.25089"
             height="0.67909116"
             width="0.61419833"
             id="rect4357-06-5-3" />
          <rect
             style="fill:#f4eed7;fill-rule:evenodd"
             y="969.3866"
             x="184.31563"
             height="0.70454657"
             width="0.61419833"
             id="rect4357-06-1-3" />
          <rect
             style="fill:#f4eed7;fill-rule:evenodd"
             y="969.38721"
             x="185.55486"
             height="0.71639568"
             width="0.60335821"
             id="rect4357-06-19-1" />
          <rect
             style="fill:#f4eed7;fill-rule:evenodd"
             y="969.3866"
             x="186.77242"
             height="0.70454657"
             width="0.61419833"
             id="rect4357-06-7-4" />
          <rect
             style="fill:#f4eed7;fill-rule:evenodd"
             y="969.39911"
             x="188.02248"
             height="0.67909116"
             width="0.59251803"
             id="rect4357-06-8-5" />
          <rect
             style="fill:#f4eed7;fill-rule:evenodd"
             y="969.39911"
             x="189.22922"
             height="0.69152617"
             width="0.62452799"
             id="rect4357-06-0-6" />
          <rect
             style="fill:#f4eed7;fill-rule:evenodd"
             y="970.80823"
             x="184.33806"
             height="0.69152617"
             width="0.60284758"
             id="rect4357-06-0-9-6" />
          <rect
             style="fill:#f4eed7;fill-rule:evenodd"
             y="970.80823"
             x="185.56595"
             height="0.70396066"
             width="0.5920074"
             id="rect4357-06-0-4-6" />
          <rect
             style="fill:#f4eed7;fill-rule:evenodd"
             y="970.79633"
             x="186.78351"
             height="0.70396066"
             width="0.62452799"
             id="rect4357-06-0-0-1" />
          <rect
             style="fill:#f4eed7;fill-rule:evenodd"
             y="970.79578"
             x="188.02274"
             height="0.69152617"
             width="0.60284758"
             id="rect4357-06-0-08-0" />
          <rect
             style="fill:#f4eed7;fill-rule:evenodd"
             y="970.79578"
             x="189.25114"
             height="0.69152617"
             width="0.61368763"
             id="rect4357-06-0-8-9" />
          <rect
             style="fill:#f4eed7;fill-rule:evenodd"
             y="972.20483"
             x="184.33757"
             height="0.70396066"
             width="0.5920074"
             id="rect4357-06-0-87-3" />
          <rect
             style="fill:#f4eed7;fill-rule:evenodd"
             y="972.20483"
             x="185.5768"
             height="0.67909116"
             width="0.58116728"
             id="rect4357-06-0-1-4" />
          <rect
             style="fill:#f4eed7;fill-rule:evenodd"
             y="972.21729"
             x="186.78351"
             height="0.67909116"
             width="0.61368763"
             id="rect4357-06-0-3-7" />
          <rect
             style="fill:#f4eed7;fill-rule:evenodd"
             y="972.21729"
             x="188.02274"
             height="0.67909116"
             width="0.60284758"
             id="rect4357-06-0-2-9" />
          <rect
             style="fill:#f4eed7;fill-rule:evenodd"
             y="972.21783"
             x="189.25114"
             height="0.66665655"
             width="0.5920074"
             id="rect4357-06-0-83-0" />
          <rect
             style="fill:#ffffff;fill-rule:evenodd"
             rx="0.00017417909"
             y="963.1264"
             x="183.20985"
             height="1.2792927"
             width="0.15007246"
             id="rect4685-52" />
          <rect
             style="fill:#ffffff;fill-rule:evenodd"
             transform="scale(-1,1)"
             rx="0.00023316902"
             y="962.52246"
             x="-185.05246"
             height="1.8831899"
             width="0.20089804"
             id="rect4685-1-8" />
          <rect
             style="fill:#ffffff;fill-rule:evenodd"
             transform="scale(1,-1)"
             rx="0.00088703824"
             y="-963.27435"
             x="183.20985"
             height="0.23044989"
             width="0.76427078"
             id="rect4685-3-5" />
          <rect
             style="fill:#ffffff;fill-rule:evenodd"
             rx="0.00017417909"
             y="962.646"
             x="189.70242"
             height="0.62507087"
             width="0.15007246"
             id="rect4685-34-9" />
          <rect
             style="fill:#ffffff;fill-rule:evenodd"
             rx="0.00017417909"
             y="963.05829"
             x="186.76343"
             height="1.2792927"
             width="0.15007246"
             id="rect4685-31-7" />
          <rect
             style="fill:#ffffff;fill-rule:evenodd"
             rx="0.0016508158"
             y="963.09875"
             x="188.42659"
             height="0.17214815"
             width="1.4223405"
             id="rect4685-6-2" />
          <rect
             style="fill:#ffffff;fill-rule:evenodd"
             rx="0.00017417909"
             y="963.12335"
             x="188.43054"
             height="1.2792927"
             width="0.15007246"
             id="rect4685-12-1" />
          <rect
             style="fill:#ffffff;fill-rule:evenodd"
             rx="0.00017417909"
             y="963.78064"
             x="190.08215"
             height="0.62507087"
             width="0.15007246"
             id="rect4685-8-4" />
          <rect
             style="fill:#ffffff;fill-rule:evenodd"
             rx="0.0012943863"
             y="963.66217"
             x="190.08215"
             height="0.17214815"
             width="1.1152413"
             id="rect4685-7-3" />
          <rect
             style="fill:#ffffff;fill-rule:evenodd"
             rx="0.00017417909"
             y="963.65967"
             x="191.07745"
             height="1.2792927"
             width="0.15007246"
             id="rect4685-76-7" />
          <rect
             style="fill:#ffffff;fill-rule:evenodd"
             rx="0.00017417909"
             y="968.3667"
             x="180.08485"
             height="0.67539573"
             width="0.15007246"
             id="rect4685-06-7" />
          <rect
             style="fill:#ffffff;fill-rule:evenodd"
             rx="0.00017417909"
             y="975.43817"
             x="183.23824"
             height="0.42377189"
             width="0.15007246"
             id="rect4685-2-3" />
          <rect
             style="fill:#ffffff;fill-rule:evenodd"
             rx="0.0019054089"
             y="975.82031"
             x="183.2384"
             height="0.17214815"
             width="1.6416972"
             id="rect4685-91-2" />
          <rect
             style="fill:#ffffff;fill-rule:evenodd"
             rx="0.001447142"
             y="965.48859"
             x="191.76477"
             height="0.17214815"
             width="1.2468554"
             id="rect4685-086-1" />
          <rect
             style="fill:#ffffff;fill-rule:evenodd"
             rx="0.00017417909"
             y="965.89349"
             x="193.13998"
             height="1.2792927"
             width="0.15007246"
             id="rect4685-87-3" />
          <rect
             style="fill:#ffffff;fill-rule:evenodd"
             rx="0.0011416314"
             y="969.87665"
             x="193.11491"
             height="0.22247292"
             width="0.9836275"
             id="rect4685-55-0" />
          <rect
             style="fill:#ffffff;fill-rule:evenodd"
             rx="0.0015998977"
             y="966.94806"
             x="191.76477"
             height="0.22247292"
             width="1.3784692"
             id="rect4685-64-2" />
          <rect
             style="fill:#ffffff;fill-rule:evenodd"
             rx="0.0019054089"
             y="968.40747"
             x="191.76477"
             height="0.22247292"
             width="1.6416972"
             id="rect4685-24-6" />
          <rect
             style="fill:#ffffff;fill-rule:evenodd"
             rx="0.0018544901"
             y="970.24304"
             x="191.67436"
             height="0.17214815"
             width="1.5978256"
             id="rect4685-245-4" />
          <rect
             style="fill:#ffffff;fill-rule:evenodd"
             rx="0.00017417909"
             y="969.89996"
             x="193.11679"
             height="0.47409666"
             width="0.15007246"
             id="rect4685-4-9" />
          <rect
             style="fill:#ffffff;fill-rule:evenodd"
             rx="0.0012943863"
             y="972.01611"
             x="191.71071"
             height="0.17214815"
             width="1.1152413"
             id="rect4685-54-7" />
          <rect
             style="fill:#ffffff;fill-rule:evenodd"
             rx="0.00017417909"
             y="972.03082"
             x="192.68607"
             height="0.77604514"
             width="0.15007246"
             id="rect4685-557-4" />
          <rect
             style="fill:#ffffff;fill-rule:evenodd"
             rx="0.0017526529"
             y="972.63477"
             x="192.69139"
             height="0.17214815"
             width="1.5100833"
             id="rect4685-17-5" />
          <rect
             style="fill:#ffffff;fill-rule:evenodd"
             rx="0.001447142"
             y="973.69153"
             x="191.69896"
             height="0.22247292"
             width="1.2468554"
             id="rect4685-82-0" />
          <rect
             style="fill:#ffffff;fill-rule:evenodd"
             rx="0.00017417909"
             y="973.71393"
             x="192.79297"
             height="1.2792927"
             width="0.15007246"
             id="rect4685-22-3" />
          <rect
             style="fill:#ffffff;fill-rule:evenodd"
             rx="0.0014980605"
             y="973.79218"
             x="180.66533"
             height="0.22247292"
             width="1.2907264"
             id="rect4685-93-2" />
          <rect
             style="fill:#ffffff;fill-rule:evenodd"
             rx="0.0013962232"
             y="972.08118"
             x="180.75308"
             height="0.22247297"
             width="1.202984"
             id="rect4685-44-1" />
          <rect
             style="fill:#ffffff;fill-rule:evenodd"
             rx="0.00017417909"
             y="972.08118"
             x="180.70168"
             height="0.87669474"
             width="0.15007246"
             id="rect4685-14-2" />
          <rect
             style="fill:#ffffff;fill-rule:evenodd"
             rx="0.00063244574"
             y="970.17786"
             x="181.37274"
             height="0.17214815"
             width="0.54491425"
             id="rect4685-225-6" />
          <rect
             style="fill:#ffffff;fill-rule:evenodd"
             rx="0.0021090829"
             y="968.35718"
             x="180.09499"
             height="0.17214815"
             width="1.8171823"
             id="rect4685-441-9" />
          <rect
             style="fill:#ffffff;fill-rule:evenodd"
             rx="0.0016508158"
             y="966.94806"
             x="180.57759"
             height="0.17214815"
             width="1.4223405"
             id="rect4685-825-9" />
          <rect
             style="fill:#ffffff;fill-rule:evenodd"
             rx="0.00017417909"
             y="966.14288"
             x="180.48985"
             height="0.9773441"
             width="0.15007246"
             id="rect4685-58-2" />
          <rect
             style="fill:#ffffff;fill-rule:evenodd"
             rx="0.0010907124"
             y="965.48859"
             x="181.06017"
             height="0.17214815"
             width="0.93975598"
             id="rect4685-2255-1" />
          <rect
             style="fill:#ffffff;fill-rule:evenodd"
             rx="0.00017417909"
             y="975.54614"
             x="188.82045"
             height="0.87669474"
             width="0.15007246"
             id="rect4685-14-2-2" />
          <rect
             style="fill:#ffffff;fill-rule:evenodd"
             rx="0.00017417909"
             y="975.54785"
             x="190.28664"
             height="1.2792927"
             width="0.15007246"
             id="rect4685-22-3-9" />
          <rect
             style="fill:#ffffff;fill-rule:evenodd"
             rx="0.00017417909"
             y="975.53235"
             x="185.11461"
             height="0.87669474"
             width="0.15007246"
             id="rect4685-14-2-3" />
          <rect
             style="fill:#ffffff;fill-rule:evenodd"
             rx="0.00063244574"
             y="976.66669"
             x="186.40395"
             height="0.17214815"
             width="0.54491425"
             id="rect4685-225-6-3" />
        </g>
      </g>
      <path
         style="fill:#a05a2c;fill-opacity:1;fill-rule:nonzero"
         inkscape:connector-curvature="0"
         id="path7597-17-1"
         d="m 185.65034,238.45937 c 0,5.68251 -4.74113,10.28921 -10.58941,10.28921 -5.84828,0 -10.5894,-4.6067 -10.5894,-10.28921 0,-5.68243 4.74112,-10.28921 10.5894,-10.28921 5.84828,0 10.58941,4.60678 10.58941,10.28921" />
      <path
         style="fill:#deaa87;fill-opacity:1;fill-rule:nonzero"
         inkscape:connector-curvature="0"
         id="path7597-1-0-1"
         d="m 182.21613,238.20629 c 0,3.72573 -3.32181,6.74613 -7.41935,6.74613 -4.09757,0 -7.41938,-3.0204 -7.41938,-6.74613 0,-3.72561 3.32181,-6.74609 7.41938,-6.74609 4.09754,0 7.41935,3.02048 7.41935,6.74609" />
    </g>
  </g>
</svg>
