<?xml version="1.0" encoding="UTF-8" standalone="no"?>
<svg
   xmlns:dc="http://purl.org/dc/elements/1.1/"
   xmlns:cc="http://creativecommons.org/ns#"
   xmlns:rdf="http://www.w3.org/1999/02/22-rdf-syntax-ns#"
   xmlns:svg="http://www.w3.org/2000/svg"
   xmlns="http://www.w3.org/2000/svg"
   xmlns:sodipodi="http://sodipodi.sourceforge.net/DTD/sodipodi-0.dtd"
   xmlns:inkscape="http://www.inkscape.org/namespaces/inkscape"
   width="1000"
   height="1000"
   id="tablecodes"
   version="1.1"
   inkscape:version="0.48.4 r9939"
   sodipodi:docname="TableCodes.svg">
  <defs
     id="defs4" />
  <sodipodi:namedview
     id="base"
     pagecolor="#ffffff"
     bordercolor="#666666"
     borderopacity="1.0"
     inkscape:pageopacity="0.0"
     inkscape:pageshadow="2"
     inkscape:zoom="0.49497475"
     inkscape:cx="464.36532"
     inkscape:cy="437.07018"
     inkscape:document-units="px"
     inkscape:current-layer="layer1"
     showgrid="false"
     inkscape:window-width="1615"
     inkscape:window-height="1026"
     inkscape:window-x="65"
     inkscape:window-y="24"
     inkscape:window-maximized="1">
    <inkscape:grid
       type="xygrid"
       id="grid5429"
       empspacing="5"
       visible="true"
       enabled="true"
       snapvisiblegridlinesonly="true" />
  </sodipodi:namedview>
  <metadata
     id="metadata7">
    <rdf:RDF>
      <cc:Work
         rdf:about="">
        <dc:format>
          image/svg+xml
        </dc:format>
        <dc:type
           rdf:resource="http://purl.org/dc/dcmitype/StillImage" />
        <dc:title />
      </cc:Work>
    </rdf:RDF>
  </metadata>
  <g
     inkscape:label="Layer 1"
     inkscape:groupmode="layer"
     id="layer1"
     transform="translate(0,-52.36218)">
    <g
       id="g3145"
       transform="matrix(4.1864391,0,0,4.0576032,124.21868,-3397.6351)">
      <path
         id="path3902-0"
         d="m 52.317029,946.39163 0,33.90503 18.7451,0 0,19.11887"
         inkscape:connector-curvature="0"
         style="fill:none;stroke:#091d80;stroke-width:1.5278697;stroke-linecap:butt;stroke-linejoin:round;stroke-miterlimit:22.92560005;stroke-opacity:0.73059363;stroke-dasharray:none" />
      <path
         id="path3890"
         d="m 162.31737,935.22806 0,57.35452 -38.97727,0 0,9.36942"
         inkscape:connector-curvature="0"
         style="fill:none;stroke:#1b11c5;stroke-width:1.5278697;stroke-linecap:butt;stroke-linejoin:round;stroke-miterlimit:22.92560005;stroke-opacity:0.89954343;stroke-dasharray:none" />
      <path
         id="path3892"
         d="m 142.84858,901.71389 0,85.8587 -26.03104,0 0,14.37941"
         inkscape:connector-curvature="0"
         style="fill:none;stroke:#093d8f;stroke-width:1.5278697;stroke-linecap:butt;stroke-linejoin:round;stroke-miterlimit:22.92560005;stroke-opacity:0.83561641;stroke-dasharray:none" />
      <path
         id="path3894"
         d="m 74.707833,952.69811 0,49.25389"
         inkscape:connector-curvature="0"
         style="fill:none;stroke:#1b359f;stroke-width:1.5278697;stroke-linecap:butt;stroke-linejoin:bevel;stroke-miterlimit:22.92560005;stroke-opacity:0.96803655;stroke-dasharray:none" />
      <path
         id="path3896"
         d="m 91.163729,929.67725 0,38.48597 -7.801132,0 0,33.78878"
         inkscape:connector-curvature="0"
         style="fill:none;stroke:#1e2da5;stroke-width:1.5278697;stroke-linecap:butt;stroke-linejoin:round;stroke-miterlimit:22.92560005;stroke-opacity:0.87671234;stroke-dasharray:none" />
      <path
         id="path3898"
         d="m 107.55398,949.89374 0,21.4138 -14.543038,0 0,29.41676"
         inkscape:connector-curvature="0"
         style="fill:none;stroke:#2830bb;stroke-width:1.5278697;stroke-linecap:butt;stroke-linejoin:round;stroke-miterlimit:22.92560005;stroke-opacity:0.913242;stroke-dasharray:none" />
      <path
         id="path3900"
         d="m 126.04206,927.47868 0,49.02684 -24.42536,0 0,25.44648"
         inkscape:connector-curvature="0"
         style="fill:none;stroke:#2c07cb;stroke-width:1.5278697;stroke-linecap:butt;stroke-linejoin:round;stroke-miterlimit:22.92560005;stroke-opacity:0.76255709;stroke-dasharray:none" />
      <path
         id="path3902"
         d="m 135.60537,946.24169 0,35.56458 -26.30437,0 0,20.05463"
         inkscape:connector-curvature="0"
         style="fill:none;stroke:#232fae;stroke-width:1.5278697;stroke-linecap:butt;stroke-linejoin:round;stroke-miterlimit:22.92560005;stroke-opacity:0.78995439;stroke-dasharray:none" />
      <path
         id="path3904"
         d="m 17.992951,945.94807 0,28.93674 18.628492,0 0,25.40509"
         inkscape:connector-curvature="0"
         style="fill:none;stroke:#384d97;stroke-width:1.5278697;stroke-linecap:butt;stroke-linejoin:round;stroke-miterlimit:0;stroke-opacity:0.99543379;stroke-dasharray:none" />
      <path
         id="path3908"
         d="m 38.818011,910.64223 0,77.64835 12.884114,0 0,19.39032"
         inkscape:connector-curvature="0"
         style="fill:none;stroke:#283795;stroke-width:1.59566891;stroke-linecap:butt;stroke-linejoin:round;stroke-miterlimit:22.92560005;stroke-opacity:0.84474888;stroke-dasharray:none" />
      <path
         id="path3962"
         d="m 150.25096,1002.9428 c 0.20381,0 0.36905,0.2884 0.36905,0.6435 0,0.3556 -0.16524,0.6438 -0.36905,0.6438 l -23.67687,0 c -0.20403,0 -0.36924,-0.2882 -0.36924,-0.6438 0,-0.3551 0.16521,-0.6435 0.36924,-0.6435 l 23.67687,0"
         inkscape:connector-curvature="0"
         style="fill:#0044aa;fill-opacity:1;fill-rule:nonzero" />
      <path
         id="path3966"
         d="m 31.38899,998.25653 98.06715,0 c 1.51344,0 2.75164,1.19768 2.75164,2.66197 l 0,28.3103 c 0,1.4637 -1.2382,2.6615 -2.75164,2.6615 l -98.06715,0 c -1.513653,0 -2.751852,-1.1978 -2.751852,-2.6615 l 0,-28.3103 c 0,-1.46429 1.238199,-2.66197 2.751852,-2.66197"
         inkscape:connector-curvature="0"
         style="fill:#2c5aa0;fill-opacity:1;fill-rule:evenodd" />
      <path
         id="path3968"
         d="m 33.453321,1001.1546 3.956345,0 c 0.453318,0 0.824357,0.3589 0.824357,0.7974 l 0,3.827 c 0,0.4382 -0.371039,0.7971 -0.824357,0.7971 l -3.956345,0 c -0.453318,0 -0.824356,-0.3589 -0.824356,-0.7971 l 0,-3.827 c 0,-0.4385 0.371038,-0.7974 0.824356,-0.7974"
         inkscape:connector-curvature="0"
         style="fill:#b0a6a8;fill-opacity:1;fill-rule:evenodd" />
      <path
         id="path3970"
         d="m 41.366233,1001.1546 3.956342,0 c 0.453543,0 0.824359,0.3589 0.824359,0.7974 l 0,3.827 c 0,0.4382 -0.370816,0.7971 -0.824359,0.7971 l -3.956342,0 c -0.45332,0 -0.824364,-0.3589 -0.824364,-0.7971 l 0,-3.827 c 0,-0.4385 0.371044,-0.7974 0.824364,-0.7974"
         inkscape:connector-curvature="0"
         style="fill:#b0a6a8;fill-opacity:1;fill-rule:evenodd" />
      <path
         id="path3972"
         d="m 49.279137,1001.1546 3.956345,0 c 0.453318,0 0.824363,0.3589 0.824363,0.7974 l 0,3.827 c 0,0.4382 -0.371045,0.7971 -0.824363,0.7971 l -3.956345,0 c -0.453318,0 -0.824358,-0.3589 -0.824358,-0.7971 l 0,-3.827 c 0,-0.4385 0.37104,-0.7974 0.824358,-0.7974"
         inkscape:connector-curvature="0"
         style="fill:#b0a6a8;fill-opacity:1;fill-rule:evenodd" />
      <path
         id="path3974"
         d="m 57.192048,1001.1546 3.956345,0 c 0.453318,0 0.824134,0.3589 0.824134,0.7974 l 0,3.827 c 0,0.4382 -0.370816,0.7971 -0.824134,0.7971 l -3.956345,0 c -0.453541,0 -0.824355,-0.3589 -0.824355,-0.7971 l 0,-3.827 c 0,-0.4385 0.370814,-0.7974 0.824355,-0.7974"
         inkscape:connector-curvature="0"
         style="fill:#b0a6a8;fill-opacity:1;fill-rule:evenodd" />
      <path
         id="path3976"
         d="m 65.104738,1001.1546 3.956344,0 c 0.453539,0 0.824356,0.3589 0.824356,0.7974 l 0,3.827 c 0,0.4382 -0.370817,0.7971 -0.824356,0.7971 l -3.956344,0 c -0.453319,0 -0.824141,-0.3589 -0.824141,-0.7971 l 0,-3.827 c 0,-0.4385 0.370822,-0.7974 0.824141,-0.7974"
         inkscape:connector-curvature="0"
         style="fill:#b0a6a8;fill-opacity:1;fill-rule:evenodd" />
      <path
         id="path3978"
         d="m 73.017648,1001.1546 3.95656,0 c 0.453319,0 0.824141,0.3589 0.824141,0.7974 l 0,3.827 c 0,0.4382 -0.370822,0.7971 -0.824141,0.7971 l -3.95656,0 c -0.453318,0 -0.824364,-0.3589 -0.824364,-0.7971 l 0,-3.827 c 0,-0.4385 0.371046,-0.7974 0.824364,-0.7974"
         inkscape:connector-curvature="0"
         style="fill:#b0a6a8;fill-opacity:1;fill-rule:evenodd" />
      <path
         id="path3980"
         d="m 80.930552,1001.1546 3.956344,0 c 0.453544,0 0.824363,0.3589 0.824363,0.7974 l 0,3.827 c 0,0.4382 -0.370819,0.7971 -0.824363,0.7971 l -3.956344,0 c -0.453317,0 -0.824134,-0.3589 -0.824134,-0.7971 l 0,-3.827 c 0,-0.4385 0.370817,-0.7974 0.824134,-0.7974"
         inkscape:connector-curvature="0"
         style="fill:#b0a6a8;fill-opacity:1;fill-rule:evenodd" />
      <path
         id="path3982"
         d="m 88.843461,1001.1546 3.956347,0 c 0.453542,0 0.824357,0.3589 0.824357,0.7974 l 0,3.827 c 0,0.4382 -0.370815,0.7971 -0.824357,0.7971 l -3.956347,0 c -0.453315,0 -0.824353,-0.3589 -0.824353,-0.7971 l 0,-3.827 c 0,-0.4385 0.371038,-0.7974 0.824353,-0.7974"
         inkscape:connector-curvature="0"
         style="fill:#b0a6a8;fill-opacity:1;fill-rule:evenodd" />
      <path
         id="path3984"
         d="m 99.696724,1001.1546 3.956146,0 c 0.4533,0 0.82436,0.3589 0.82436,0.7974 l 0,3.827 c 0,0.4382 -0.37104,0.7971 -0.82436,0.7971 l -3.956146,0 c -0.453526,0 -0.82435,-0.3589 -0.82435,-0.7971 l 0,-3.827 c 0,-0.4385 0.370824,-0.7974 0.82435,-0.7974"
         inkscape:connector-curvature="0"
         style="fill:#b0a6a8;fill-opacity:1;fill-rule:evenodd" />
      <path
         id="path3986"
         d="m 107.60942,1001.1546 3.95636,0 c 0.45352,0 0.82435,0.3589 0.82435,0.7974 l 0,3.827 c 0,0.4382 -0.37083,0.7971 -0.82435,0.7971 l -3.95636,0 c -0.45353,0 -0.82413,-0.3589 -0.82413,-0.7971 l 0,-3.827 c 0,-0.4385 0.3706,-0.7974 0.82413,-0.7974"
         inkscape:connector-curvature="0"
         style="fill:#b0a6a8;fill-opacity:1;fill-rule:evenodd" />
      <path
         id="path3988"
         d="m 115.52234,1001.1546 3.95633,0 c 0.45355,0 0.82438,0.3589 0.82438,0.7974 l 0,3.827 c 0,0.4382 -0.37083,0.7971 -0.82438,0.7971 l -3.95633,0 c -0.45354,0 -0.82436,-0.3589 -0.82436,-0.7971 l 0,-3.827 c 0,-0.4385 0.37082,-0.7974 0.82436,-0.7974"
         inkscape:connector-curvature="0"
         style="fill:#b0a6a8;fill-opacity:1;fill-rule:evenodd" />
      <path
         id="path3990"
         d="m 33.453321,1008.7133 3.956345,0 c 0.453318,0 0.824357,0.3586 0.824357,0.7971 l 0,3.8267 c 0,0.4386 -0.371039,0.7973 -0.824357,0.7973 l -3.956345,0 c -0.453318,0 -0.824356,-0.3587 -0.824356,-0.7973 l 0,-3.8267 c 0,-0.4385 0.371038,-0.7971 0.824356,-0.7971"
         inkscape:connector-curvature="0"
         style="fill:#b0a6a8;fill-opacity:1;fill-rule:evenodd" />
      <path
         id="path3992"
         d="m 41.366233,1008.7133 3.956342,0 c 0.453543,0 0.824359,0.3586 0.824359,0.7971 l 0,3.8267 c 0,0.4386 -0.370816,0.7973 -0.824359,0.7973 l -3.956342,0 c -0.45332,0 -0.824364,-0.3587 -0.824364,-0.7973 l 0,-3.8267 c 0,-0.4385 0.371044,-0.7971 0.824364,-0.7971"
         inkscape:connector-curvature="0"
         style="fill:#b0a6a8;fill-opacity:1;fill-rule:evenodd" />
      <path
         id="path3994"
         d="m 49.279137,1008.7133 3.956345,0 c 0.453318,0 0.824363,0.3586 0.824363,0.7971 l 0,3.8267 c 0,0.4386 -0.371045,0.7973 -0.824363,0.7973 l -3.956345,0 c -0.453318,0 -0.824358,-0.3587 -0.824358,-0.7973 l 0,-3.8267 c 0,-0.4385 0.37104,-0.7971 0.824358,-0.7971"
         inkscape:connector-curvature="0"
         style="fill:#b0a6a8;fill-opacity:1;fill-rule:evenodd" />
      <path
         id="path3996"
         d="m 57.192048,1008.7133 3.956345,0 c 0.453318,0 0.824134,0.3586 0.824134,0.7971 l 0,3.8267 c 0,0.4386 -0.370816,0.7973 -0.824134,0.7973 l -3.956345,0 c -0.453541,0 -0.824355,-0.3587 -0.824355,-0.7973 l 0,-3.8267 c 0,-0.4385 0.370814,-0.7971 0.824355,-0.7971"
         inkscape:connector-curvature="0"
         style="fill:#b0a6a8;fill-opacity:1;fill-rule:evenodd" />
      <path
         id="path3998"
         d="m 65.104738,1008.7133 3.956344,0 c 0.453539,0 0.824356,0.3586 0.824356,0.7971 l 0,3.8267 c 0,0.4386 -0.370817,0.7973 -0.824356,0.7973 l -3.956344,0 c -0.453319,0 -0.824141,-0.3587 -0.824141,-0.7973 l 0,-3.8267 c 0,-0.4385 0.370822,-0.7971 0.824141,-0.7971"
         inkscape:connector-curvature="0"
         style="fill:#b0a6a8;fill-opacity:1;fill-rule:evenodd" />
      <path
         id="path4000"
         d="m 73.017648,1008.7133 3.95656,0 c 0.453319,0 0.824141,0.3586 0.824141,0.7971 l 0,3.8267 c 0,0.4386 -0.370822,0.7973 -0.824141,0.7973 l -3.95656,0 c -0.453318,0 -0.824364,-0.3587 -0.824364,-0.7973 l 0,-3.8267 c 0,-0.4385 0.371046,-0.7971 0.824364,-0.7971"
         inkscape:connector-curvature="0"
         style="fill:#b0a6a8;fill-opacity:1;fill-rule:evenodd" />
      <path
         id="path4002"
         d="m 80.930552,1008.7133 3.956344,0 c 0.453544,0 0.824363,0.3586 0.824363,0.7971 l 0,3.8267 c 0,0.4386 -0.370819,0.7973 -0.824363,0.7973 l -3.956344,0 c -0.453317,0 -0.824134,-0.3587 -0.824134,-0.7973 l 0,-3.8267 c 0,-0.4385 0.370817,-0.7971 0.824134,-0.7971"
         inkscape:connector-curvature="0"
         style="fill:#b0a6a8;fill-opacity:1;fill-rule:evenodd" />
      <path
         id="path4004"
         d="m 88.843461,1008.7133 3.956347,0 c 0.453542,0 0.824357,0.3586 0.824357,0.7971 l 0,3.8267 c 0,0.4386 -0.370815,0.7973 -0.824357,0.7973 l -3.956347,0 c -0.453315,0 -0.824353,-0.3587 -0.824353,-0.7973 l 0,-3.8267 c 0,-0.4385 0.371038,-0.7971 0.824353,-0.7971"
         inkscape:connector-curvature="0"
         style="fill:#b0a6a8;fill-opacity:1;fill-rule:evenodd" />
      <path
         id="path4006"
         d="m 99.696724,1008.7133 3.956146,0 c 0.4533,0 0.82436,0.3586 0.82436,0.7971 l 0,3.8267 c 0,0.4386 -0.37104,0.7973 -0.82436,0.7973 l -3.956146,0 c -0.453526,0 -0.82435,-0.3587 -0.82435,-0.7973 l 0,-3.8267 c 0,-0.4385 0.370824,-0.7971 0.82435,-0.7971"
         inkscape:connector-curvature="0"
         style="fill:#b0a6a8;fill-opacity:1;fill-rule:evenodd" />
      <path
         id="path4008"
         d="m 107.60942,1008.7133 3.95636,0 c 0.45352,0 0.82435,0.3586 0.82435,0.7971 l 0,3.8267 c 0,0.4386 -0.37083,0.7973 -0.82435,0.7973 l -3.95636,0 c -0.45353,0 -0.82413,-0.3587 -0.82413,-0.7973 l 0,-3.8267 c 0,-0.4385 0.3706,-0.7971 0.82413,-0.7971"
         inkscape:connector-curvature="0"
         style="fill:#b0a6a8;fill-opacity:1;fill-rule:evenodd" />
      <path
         id="path4010"
         d="m 115.52234,1008.7133 3.95633,0 c 0.45355,0 0.82438,0.3586 0.82438,0.7971 l 0,3.8267 c 0,0.4386 -0.37083,0.7973 -0.82438,0.7973 l -3.95633,0 c -0.45354,0 -0.82436,-0.3587 -0.82436,-0.7973 l 0,-3.8267 c 0,-0.4385 0.37082,-0.7971 0.82436,-0.7971"
         inkscape:connector-curvature="0"
         style="fill:#b0a6a8;fill-opacity:1;fill-rule:evenodd" />
      <path
         id="path4012"
         d="m 33.453321,1016.2718 3.956345,0 c 0.453318,0 0.824357,0.3587 0.824357,0.7973 l 0,3.8269 c 0,0.4381 -0.371039,0.7969 -0.824357,0.7969 l -3.956345,0 c -0.453318,0 -0.824356,-0.3588 -0.824356,-0.7969 l 0,-3.8269 c 0,-0.4386 0.371038,-0.7973 0.824356,-0.7973"
         inkscape:connector-curvature="0"
         style="fill:#b0a6a8;fill-opacity:1;fill-rule:evenodd" />
      <path
         id="path4014"
         d="m 41.366233,1016.2718 3.956342,0 c 0.453543,0 0.824359,0.3587 0.824359,0.7973 l 0,3.8269 c 0,0.4381 -0.370816,0.7969 -0.824359,0.7969 l -3.956342,0 c -0.45332,0 -0.824364,-0.3588 -0.824364,-0.7969 l 0,-3.8269 c 0,-0.4386 0.371044,-0.7973 0.824364,-0.7973"
         inkscape:connector-curvature="0"
         style="fill:#b0a6a8;fill-opacity:1;fill-rule:evenodd" />
      <path
         id="path4016"
         d="m 49.279137,1016.2718 3.956345,0 c 0.453318,0 0.824363,0.3587 0.824363,0.7973 l 0,3.8269 c 0,0.4381 -0.371045,0.7969 -0.824363,0.7969 l -3.956345,0 c -0.453318,0 -0.824358,-0.3588 -0.824358,-0.7969 l 0,-3.8269 c 0,-0.4386 0.37104,-0.7973 0.824358,-0.7973"
         inkscape:connector-curvature="0"
         style="fill:#b0a6a8;fill-opacity:1;fill-rule:evenodd" />
      <path
         id="path4018"
         d="m 57.192048,1016.2718 3.956345,0 c 0.453318,0 0.824134,0.3587 0.824134,0.7973 l 0,3.8269 c 0,0.4381 -0.370816,0.7969 -0.824134,0.7969 l -3.956345,0 c -0.453541,0 -0.824355,-0.3588 -0.824355,-0.7969 l 0,-3.8269 c 0,-0.4386 0.370814,-0.7973 0.824355,-0.7973"
         inkscape:connector-curvature="0"
         style="fill:#b0a6a8;fill-opacity:1;fill-rule:evenodd" />
      <path
         id="path4020"
         d="m 65.104738,1016.2718 3.956344,0 c 0.453539,0 0.824356,0.3587 0.824356,0.7973 l 0,3.8269 c 0,0.4381 -0.370817,0.7969 -0.824356,0.7969 l -3.956344,0 c -0.453319,0 -0.824141,-0.3588 -0.824141,-0.7969 l 0,-3.8269 c 0,-0.4386 0.370822,-0.7973 0.824141,-0.7973"
         inkscape:connector-curvature="0"
         style="fill:#b0a6a8;fill-opacity:1;fill-rule:evenodd" />
      <path
         id="path4022"
         d="m 73.017648,1016.2718 3.95656,0 c 0.453319,0 0.824141,0.3587 0.824141,0.7973 l 0,3.8269 c 0,0.4381 -0.370822,0.7969 -0.824141,0.7969 l -3.95656,0 c -0.453318,0 -0.824364,-0.3588 -0.824364,-0.7969 l 0,-3.8269 c 0,-0.4386 0.371046,-0.7973 0.824364,-0.7973"
         inkscape:connector-curvature="0"
         style="fill:#b0a6a8;fill-opacity:1;fill-rule:evenodd" />
      <path
         id="path4024"
         d="m 80.930552,1016.2718 3.956344,0 c 0.453544,0 0.824363,0.3587 0.824363,0.7973 l 0,3.8269 c 0,0.4381 -0.370819,0.7969 -0.824363,0.7969 l -3.956344,0 c -0.453317,0 -0.824134,-0.3588 -0.824134,-0.7969 l 0,-3.8269 c 0,-0.4386 0.370817,-0.7973 0.824134,-0.7973"
         inkscape:connector-curvature="0"
         style="fill:#b0a6a8;fill-opacity:1;fill-rule:evenodd" />
      <path
         id="path4026"
         d="m 88.843461,1016.2718 3.956347,0 c 0.453542,0 0.824357,0.3587 0.824357,0.7973 l 0,3.8269 c 0,0.4381 -0.370815,0.7969 -0.824357,0.7969 l -3.956347,0 c -0.453315,0 -0.824353,-0.3588 -0.824353,-0.7969 l 0,-3.8269 c 0,-0.4386 0.371038,-0.7973 0.824353,-0.7973"
         inkscape:connector-curvature="0"
         style="fill:#b0a6a8;fill-opacity:1;fill-rule:evenodd" />
      <path
         id="path4028"
         d="m 99.696724,1016.2718 3.956146,0 c 0.4533,0 0.82436,0.3587 0.82436,0.7973 l 0,3.8269 c 0,0.4381 -0.37104,0.7969 -0.82436,0.7969 l -3.956146,0 c -0.453526,0 -0.82435,-0.3588 -0.82435,-0.7969 l 0,-3.8269 c 0,-0.4386 0.370824,-0.7973 0.82435,-0.7973"
         inkscape:connector-curvature="0"
         style="fill:#b0a6a8;fill-opacity:1;fill-rule:evenodd" />
      <path
         id="path4030"
         d="m 107.60942,1016.2718 3.95636,0 c 0.45352,0 0.82435,0.3587 0.82435,0.7973 l 0,3.8269 c 0,0.4381 -0.37083,0.7969 -0.82435,0.7969 l -3.95636,0 c -0.45353,0 -0.82413,-0.3588 -0.82413,-0.7969 l 0,-3.8269 c 0,-0.4386 0.3706,-0.7973 0.82413,-0.7973"
         inkscape:connector-curvature="0"
         style="fill:#b0a6a8;fill-opacity:1;fill-rule:evenodd" />
      <path
         id="path4032"
         d="m 115.52234,1016.2718 3.95633,0 c 0.45355,0 0.82438,0.3587 0.82438,0.7973 l 0,3.8269 c 0,0.4381 -0.37083,0.7969 -0.82438,0.7969 l -3.95633,0 c -0.45354,0 -0.82436,-0.3588 -0.82436,-0.7969 l 0,-3.8269 c 0,-0.4386 0.37082,-0.7973 0.82436,-0.7973"
         inkscape:connector-curvature="0"
         style="fill:#b0a6a8;fill-opacity:1;fill-rule:evenodd" />
      <path
         id="path4034"
         d="m 49.278922,1023.8302 43.521103,0 c 0.4531,0 0.82414,0.3586 0.82414,0.7972 l 0,3.8269 c 0,0.4384 -0.37104,0.7974 -0.82414,0.7974 l -43.521103,0 c -0.453103,0 -0.824143,-0.359 -0.824143,-0.7974 l 0,-3.8269 c 0,-0.4386 0.37104,-0.7972 0.824143,-0.7972"
         inkscape:connector-curvature="0"
         style="fill:#b0a6a8;fill-opacity:1;fill-rule:evenodd" />
      <path
         id="path4036"
         d="m 33.453321,1023.8302 11.869254,0 c 0.453543,0 0.824359,0.3586 0.824359,0.7972 l 0,3.8269 c 0,0.4384 -0.370816,0.7974 -0.824359,0.7974 l -11.869254,0 c -0.453541,0 -0.824356,-0.359 -0.824356,-0.7974 l 0,-3.8269 c 0,-0.4386 0.370815,-0.7972 0.824356,-0.7972"
         inkscape:connector-curvature="0"
         style="fill:#b0a6a8;fill-opacity:1;fill-rule:evenodd" />
      <path
         id="path4038"
         d="m 99.696724,1023.8302 3.956146,0 c 0.4533,0 0.82436,0.3586 0.82436,0.7972 l 0,3.8269 c 0,0.4384 -0.37104,0.7974 -0.82436,0.7974 l -3.956146,0 c -0.453526,0 -0.82435,-0.359 -0.82435,-0.7974 l 0,-3.8269 c 0,-0.4386 0.370824,-0.7972 0.82435,-0.7972"
         inkscape:connector-curvature="0"
         style="fill:#b0a6a8;fill-opacity:1;fill-rule:evenodd" />
      <path
         id="path4040"
         d="m 107.60942,1023.8302 3.95636,0 c 0.45352,0 0.82435,0.3586 0.82435,0.7972 l 0,3.8269 c 0,0.4384 -0.37083,0.7974 -0.82435,0.7974 l -3.95636,0 c -0.45353,0 -0.82413,-0.359 -0.82413,-0.7974 l 0,-3.8269 c 0,-0.4386 0.3706,-0.7972 0.82413,-0.7972"
         inkscape:connector-curvature="0"
         style="fill:#b0a6a8;fill-opacity:1;fill-rule:evenodd" />
      <path
         id="path4042"
         d="m 115.52234,1023.8302 3.95633,0 c 0.45355,0 0.82438,0.3586 0.82438,0.7972 l 0,3.8269 c 0,0.4384 -0.37083,0.7974 -0.82438,0.7974 l -3.95633,0 c -0.45354,0 -0.82436,-0.359 -0.82436,-0.7974 l 0,-3.8269 c 0,-0.4386 0.37082,-0.7972 0.82436,-0.7972"
         inkscape:connector-curvature="0"
         style="fill:#b0a6a8;fill-opacity:1;fill-rule:evenodd" />
      <path
         id="path4044"
         d="m 123.43524,1001.1546 3.95635,0 c 0.45354,0 0.82414,0.3589 0.82414,0.7974 l 0,3.827 c 0,0.4382 -0.3706,0.7971 -0.82414,0.7971 l -3.95635,0 c -0.4533,0 -0.82435,-0.3589 -0.82435,-0.7971 l 0,-3.827 c 0,-0.4385 0.37105,-0.7974 0.82435,-0.7974"
         inkscape:connector-curvature="0"
         style="fill:#b0a6a8;fill-opacity:1;fill-rule:evenodd" />
      <path
         id="path4046"
         d="m 123.43524,1008.7133 3.95635,0 c 0.45354,0 0.82414,0.3586 0.82414,0.7971 l 0,3.8267 c 0,0.4386 -0.3706,0.7973 -0.82414,0.7973 l -3.95635,0 c -0.4533,0 -0.82435,-0.3587 -0.82435,-0.7973 l 0,-3.8267 c 0,-0.4385 0.37105,-0.7971 0.82435,-0.7971"
         inkscape:connector-curvature="0"
         style="fill:#b0a6a8;fill-opacity:1;fill-rule:evenodd" />
      <path
         id="path4048"
         d="m 123.43524,1016.2718 3.95635,0 c 0.45354,0 0.82414,0.3587 0.82414,0.7973 l 0,3.8269 c 0,0.4381 -0.3706,0.7969 -0.82414,0.7969 l -3.95635,0 c -0.4533,0 -0.82435,-0.3588 -0.82435,-0.7969 l 0,-3.8269 c 0,-0.4386 0.37105,-0.7973 0.82435,-0.7973"
         inkscape:connector-curvature="0"
         style="fill:#b0a6a8;fill-opacity:1;fill-rule:evenodd" />
      <path
         id="path4050"
         d="m 123.43524,1023.8302 3.95635,0 c 0.45354,0 0.82414,0.3586 0.82414,0.7972 l 0,3.8269 c 0,0.4384 -0.3706,0.7974 -0.82414,0.7974 l -3.95635,0 c -0.4533,0 -0.82435,-0.359 -0.82435,-0.7974 l 0,-3.8269 c 0,-0.4386 0.37105,-0.7972 0.82435,-0.7972"
         inkscape:connector-curvature="0"
         style="fill:#b0a6a8;fill-opacity:1;fill-rule:evenodd" />
      <path
         id="path4052"
         d="m 149.28932,1003.2777 c 0,-0.1849 0.29808,-0.3349 0.66534,-0.3349 0.36748,0 0.66535,0.15 0.66535,0.3349 l 0,21.4651 c 0,0.1849 -0.29787,0.335 -0.66535,0.335 -0.36726,0 -0.66534,-0.1501 -0.66534,-0.335 l 0,-21.4651"
         inkscape:connector-curvature="0"
         style="fill:#0044aa;fill-opacity:1;fill-rule:nonzero" />
      <path
         id="path4054"
         d="m 149.95489,1031.8903 c 5.06102,0 9.18901,-5.2253 9.18901,-11.632 0,-6.4065 -4.12799,-11.6322 -9.18901,-11.6322 -5.06105,0 -9.18904,5.2257 -9.18904,11.6322 0,6.4067 4.12799,11.632 9.18904,11.632"
         inkscape:connector-curvature="0"
         style="fill:#164450;fill-opacity:1;fill-rule:evenodd" />
      <path
         id="path4056"
         d="m 149.95489,1028.5615 c 4.19098,0 7.60949,-4.3273 7.60949,-9.6324 0,-5.3056 -3.41851,-9.6325 -7.60949,-9.6325 -4.19145,0 -7.60974,4.3269 -7.60974,9.6325 0,5.3051 3.41829,9.6324 7.60974,9.6324"
         inkscape:connector-curvature="0"
         style="fill:#78686c;fill-opacity:1;fill-rule:evenodd" />
      <path
         id="path4058"
         d="m 149.95489,1008.6264 c 0.0655,0 0.13062,0 0.19561,0 l 0,6.0728 -0.39124,0 0,-6.0728 c 0.0648,0 0.13019,0 0.19563,0"
         inkscape:connector-curvature="0"
         style="fill:#78686c;fill-opacity:1;fill-rule:evenodd" />
      <path
         id="path4060"
         d="m 149.24208,1010.1951 1.42561,0 c 0.32046,0 0.58239,0.2533 0.58239,0.5633 l 0,6.2701 c 0,0.31 -0.26193,0.5633 -0.58239,0.5633 l -1.42561,0 c -0.32025,0 -0.58239,-0.2533 -0.58239,-0.5633 l 0,-6.2701 c 0,-0.31 0.26214,-0.5633 0.58239,-0.5633"
         inkscape:connector-curvature="0"
         style="fill:#4f4245;fill-opacity:1;fill-rule:evenodd" />
      <path
         id="path4062"
         d="m 149.56256,1010.6364 0.78443,0 c 0.17631,0 0.3207,0.1396 0.3207,0.3101 l 0,5.8939 c 0,0.1705 -0.14439,0.3102 -0.3207,0.3102 l -0.78443,0 c -0.17632,0 -0.32048,-0.1397 -0.32048,-0.3102 l 0,-5.8939 c 0,-0.1705 0.14416,-0.3101 0.32048,-0.3101"
         inkscape:connector-curvature="0"
         style="fill:#b0a6a8;fill-opacity:1;fill-rule:evenodd" />
      <path
         id="path4064"
         d="m 111.88824,1031.8879 -10.65676,-1.5526 -2.240235,14.3857 10.657025,1.5526 2.23997,-14.3857"
         inkscape:connector-curvature="0"
         style="fill:#fad0a8;fill-opacity:1;fill-rule:evenodd" />
      <path
         id="path4066"
         d="m 102.04407,1020.2053 c -0.16743,1.2258 -0.40321,2.7087 -0.66535,4.4638 l -2.741199,-5.8579 c -1.159703,-2.4791 -3.535855,-1.7295 -4.549392,-0.8315 l 4.962566,12.4716 c 0.904869,2.2742 3.678675,4.2296 6.505265,4.7199 2.54161,0.4414 5.67514,-0.027 7.6104,-2.1984 2.51345,-2.8194 2.82548,-6.1992 4.09363,-8.7013 l 3.4285,-6.7643 c 1.18585,-2.3397 -1.64715,-3.8772 -3.04947,-1.6244 l -2.99072,4.8055 c -0.0848,-0.1471 -0.0531,-0.3009 -0.19051,-0.4351 l 3.94393,-8.5959 c 0.66468,-2.5534 -2.91309,-2.8968 -3.49038,-0.7556 l -3.9874,7.7313 c -0.10505,-0.04 -0.15391,-0.2457 -0.23397,-0.26 l 4.19054,-10.9635 c 0.43182,-2.3906 -3.28923,-3.5513 -3.71017,-1.176 l -4.68909,12.3113 c -0.18277,0.059 -0.36286,0.1262 -0.54006,0.1998 l 0.89333,-12.4756 c 0.17034,-2.374 -3.59771,-2.7122 -3.77537,-0.2376 l -1.01508,14.1739"
         inkscape:connector-curvature="0"
         style="fill:#fad0a8;fill-opacity:1;fill-rule:evenodd" />
      <path
         id="path4068"
         d="m 112.13309,1038.2589 -13.075731,-1.905 -0.608354,3.9076 13.075725,1.9051 0.60836,-3.9077"
         inkscape:connector-curvature="0"
         style="fill:#b7c8b7;fill-opacity:1;fill-rule:evenodd" />
      <path
         id="path4070"
         d="m 95.268227,1052.1222 1.876693,-12.0508 15.68367,2.2852 -1.52075,9.7656 -16.039613,0"
         inkscape:connector-curvature="0"
         style="fill:#427eb2;fill-opacity:1;fill-rule:evenodd" />
      <path
         id="path4072"
         d="m 49.972868,1030.6023 10.776987,0.071 -0.103796,14.5476 -10.776757,-0.072 0.103573,-14.5475"
         inkscape:connector-curvature="0"
         style="fill:#fad0a8;fill-opacity:1;fill-rule:evenodd" />
      <path
         id="path4074"
         d="m 61.578424,1020.545 c -0.03191,1.2361 -0.03792,2.7367 -0.06145,4.5103 l 3.650955,-5.374 c 1.544701,-2.2737 3.771153,-1.1754 4.627672,-0.1357 l -6.910237,11.572 c -1.259938,2.1099 -4.314964,3.6237 -7.185915,3.6823 -2.581524,0.053 -5.601508,-0.8821 -7.163516,-3.3182 -2.028626,-3.1643 -1.792872,-6.5497 -2.642735,-9.212 l -2.296978,-7.1987 c -0.794642,-2.4895 2.251295,-3.5813 3.273483,-1.1448 l 2.180771,5.1971 c 0.107116,-0.1321 0.100461,-0.2892 0.257926,-0.4007 l -2.511438,-9.0854 c -0.245293,-2.6223 3.344226,-2.4225 3.569555,-0.2206 l 2.693527,8.2377 c 0.110442,-0.023 0.191613,-0.2193 0.27323,-0.2217 l -2.373933,-11.4608 c -0.04171,-2.4264 3.820614,-3.0127 3.854102,-0.6026 l 2.64917,12.8675 c 0.171213,0.086 0.338436,0.1792 0.501664,0.2788 l 1.12642,-12.4579 c 0.214239,-2.3709 3.990726,-2.1372 3.76761,0.3338 l -1.279898,14.1536"
         inkscape:connector-curvature="0"
         style="fill:#fad0a8;fill-opacity:1;fill-rule:evenodd" />
      <path
         id="path4076"
         d="m 48.705393,1036.8588 13.22278,0.088 -0.02818,3.9514 -13.223001,-0.088 0.0284,-3.9514"
         inkscape:connector-curvature="0"
         style="fill:#b7c8b7;fill-opacity:1;fill-rule:evenodd" />
      <path
         id="path4078"
         d="m 63.138877,1052.1222 0.07984,-11.2151 -15.860196,-0.1057 -0.08073,11.3208 15.861085,0"
         inkscape:connector-curvature="0"
         style="fill:#427eb2;fill-opacity:1;fill-rule:evenodd" />
      <path
         id="path4080"
         d="m 77.268807,906.98036 28.793813,0 c 1.48901,0 2.70733,1.07507 2.70733,2.3892 l 0,25.41624 c 0,1.31438 -1.21832,2.3897 -2.70733,2.3897 l -28.793813,0 c -1.489008,0 -2.707052,-1.07532 -2.707052,-2.3897 l 0,-25.41624 c 0,-1.31413 1.218044,-2.3892 2.707052,-2.3892"
         inkscape:connector-curvature="0"
         style="fill:#deaa87;fill-opacity:1;fill-rule:evenodd" />
      <path
         id="path4082"
         d="m 77.268807,906.33674 14.397031,0 0,1.28713 -14.397031,0 c -0.543155,0 -1.037474,0.19667 -1.396418,0.51307 -0.358704,0.31688 -0.581562,0.75338 -0.581562,1.23262 l 0,25.41624 c 0,0.4795 0.222858,0.91587 0.581562,1.23264 0.358944,0.31687 0.853263,0.5133 1.396418,0.5133 l 14.397031,0 0,1.28738 -14.397031,0 c -0.945609,0 -1.804946,-0.34137 -2.42733,-0.89076 -0.622384,-0.54913 -1.008793,-1.30783 -1.008793,-2.14256 l 0,-25.41624 c 0,-0.83437 0.386409,-1.59292 1.008793,-2.14256 0.622384,-0.54915 1.481721,-0.89026 2.42733,-0.89026 z m 14.397031,0 14.396782,0 c 0.94587,0 1.80519,0.34111 2.42759,0.89026 0.62239,0.54939 1.0088,1.30795 1.0088,2.14256 l 0,25.41624 c 0,0.83473 -0.38641,1.59343 -1.0088,2.14256 -0.62238,0.54939 -1.48172,0.89076 -2.42759,0.89076 l -14.396782,0 0,-1.28738 14.396782,0 c 0.54317,0 1.03773,-0.19643 1.39643,-0.5133 0.35896,-0.31677 0.58179,-0.75314 0.58179,-1.23264 l 0,-25.41624 c 0,-0.47924 -0.22283,-0.91574 -0.58179,-1.23262 -0.3587,-0.3164 -0.85326,-0.51307 -1.39643,-0.51307 l -14.396782,0 0,-1.28713"
         inkscape:connector-curvature="0"
         style="fill:#2c5aa0;fill-opacity:1;fill-rule:nonzero" />
      <path
         id="path4084"
         d="m 6.3083505,923.09185 21.7950435,0 c 1.127087,0 2.048804,0.89177 2.048804,1.98172 l 0,21.08101 c 0,1.09021 -0.921717,1.98199 -2.048804,1.98199 l -21.7950435,0 c -1.1268712,0 -2.0490358,-0.89178 -2.0490358,-1.98199 l 0,-21.08101 c 0,-1.08995 0.9221646,-1.98172 2.0490358,-1.98172"
         inkscape:connector-curvature="0"
         style="fill:#b7b7c8;fill-opacity:1;fill-rule:evenodd" />
      <path
         id="path4086"
         d="m 6.3083505,922.44811 10.8974065,0 0,1.28723 -10.8974065,0 c -0.3796923,0 -0.7254479,0.1509 -0.9767233,0.39373 -0.2508344,0.24285 -0.4069655,0.57728 -0.4069655,0.9445 l 0,21.08101 c 0,0.36748 0.1561311,0.70191 0.4069655,0.94476 0.2512754,0.24284 0.597031,0.39371 0.9767233,0.39371 l 10.8974065,0 0,1.28701 -10.8974065,0 c -0.7469569,0 -1.4258306,-0.29518 -1.9175172,-0.77078 -0.4914639,-0.47508 -0.7968579,-1.13196 -0.7968579,-1.8547 l 0,-21.08101 c 0,-0.72247 0.305394,-1.37909 0.7968579,-1.85456 0.4916866,-0.47548 1.1705603,-0.7709 1.9175172,-0.7709 z m 10.8974065,0 10.897637,0 c 0.747172,0 1.425822,0.29518 1.917509,0.7709 0.491695,0.47547 0.796857,1.13209 0.796857,1.85456 l 0,21.08101 c 0,0.72274 -0.30517,1.37962 -0.796857,1.8547 -0.491687,0.4756 -1.170337,0.77078 -1.917509,0.77078 l -10.897637,0 0,-1.28701 10.897637,0 c 0.379907,0 0.725663,-0.15087 0.976499,-0.39371 0.251276,-0.24285 0.406967,-0.57728 0.406967,-0.94476 l 0,-21.08101 c 0,-0.36722 -0.155691,-0.70165 -0.406967,-0.9445 -0.250836,-0.24308 -0.596592,-0.39373 -0.976499,-0.39373 l -10.897637,0 0,-1.28723"
         inkscape:connector-curvature="0"
         style="fill:#2c5aa0;fill-opacity:1;fill-rule:nonzero" />
      <path
         id="path4088"
         d="m 67.7732,943.87124 13.868829,0 c 0.717233,0 1.303848,0.56768 1.303848,1.26116 l 0,13.41449 c 0,0.69396 -0.586615,1.2614 -1.303848,1.2614 l -13.868829,0 c -0.717236,0 -1.303849,-0.56744 -1.303849,-1.2614 l 0,-13.41449 c 0,-0.69348 0.586613,-1.26116 1.303849,-1.26116"
         inkscape:connector-curvature="0"
         style="fill:#c8b7b7;fill-opacity:1;fill-rule:evenodd" />
      <path
         id="path4090"
         d="m 67.7732,943.22774 6.934409,0 0,1.28713 -6.934409,0 c -0.174986,0 -0.334442,0.0694 -0.450432,0.18191 l -0.0014,0 c -0.115106,0.11228 -0.18674,0.26669 -0.18674,0.43675 l 0,13.41449 c 0,0.1693 0.07207,0.32371 0.188071,0.43575 0.115991,0.11227 0.275448,0.1819 0.450432,0.1819 l 6.934419,0 0,1.28724 -6.934419,0 c -0.54225,0 -1.034822,-0.21407 -1.391227,-0.55897 -0.356619,-0.34501 -0.577962,-0.82136 -0.577962,-1.34592 l 0,-13.41449 c 0,-0.52278 0.221343,-0.99812 0.577962,-1.34328 l 0.0014,0 -0.0014,0 c 0.356403,-0.34501 0.848976,-0.55909 1.391224,-0.55909 z m 6.934409,0 6.93442,0 c 0.540478,0 1.032164,0.21409 1.388782,0.559 l 0.0027,0 c 0.356621,0.34512 0.577957,0.82049 0.577957,1.34325 l 0,13.41463 c 0,0.52441 -0.221336,1.0009 -0.577957,1.34579 -0.01419,0.0138 -0.02907,0.0265 -0.04414,0.0391 -0.352854,0.32196 -0.827466,0.52002 -1.347097,0.52002 l -6.934412,0 0,-1.28738 6.934412,0 c 0.164121,0 0.31404,-0.0593 0.42759,-0.15836 0.0074,-0.0126 0.01508,-0.0151 0.02282,-0.024 0.115993,-0.11231 0.188072,-0.26642 0.188072,-0.43562 l 0,-13.41462 c 0,-0.17004 -0.07141,-0.32496 -0.186741,-0.43673 -0.115774,-0.11229 -0.275899,-0.18078 -0.451769,-0.18078 l -6.934412,0 0,-1.28712"
         inkscape:connector-curvature="0"
         style="fill:#2c5aa0;fill-opacity:1;fill-rule:nonzero" />
      <path
         id="path4092"
         d="m 101.36498,941.02866 13.86884,0 c 0.71722,0 1.30404,0.56769 1.30404,1.26114 l 0,13.41476 c 0,0.69371 -0.58682,1.26116 -1.30404,1.26116 l -13.86884,0 c -0.71701,0 -1.30385,-0.56745 -1.30385,-1.26116 l 0,-13.41476 c 0,-0.69345 0.58684,-1.26114 1.30385,-1.26114"
         inkscape:connector-curvature="0"
         style="fill:#b7c8be;fill-opacity:1;fill-rule:evenodd" />
      <path
         id="path4094"
         d="m 101.36498,940.38515 6.93463,0 0,1.28713 -6.93463,0 c -0.17588,0 -0.33577,0.0694 -0.45155,0.18079 -0.11532,0.1123 -0.18696,0.26667 -0.18696,0.43673 l 0,13.41476 c 0,0.16904 0.0722,0.32345 0.1883,0.43548 l -9.6e-4,0 c 0.11577,0.11103 0.27568,0.18077 0.45156,0.18077 l 6.93464,0 0,1.28713 -6.93464,0 c -0.54026,0 -1.03195,-0.21409 -1.388806,-0.55886 l -9.5e-4,0 -9.51e-4,0 c -0.356624,-0.34513 -0.577974,-0.8216 -0.577974,-1.34578 l 0,-13.41476 c 0,-0.52278 0.22135,-0.9981 0.577974,-1.34327 l 0.0019,0 c 0.356847,-0.34502 0.848537,-0.55912 1.388797,-0.55912 z m 6.93463,0 6.93421,0 c 0.54246,0 1.03482,0.2141 1.39143,0.55898 0.0143,0.0138 0.0278,0.0277 0.0404,0.0429 0.33292,0.34124 0.53762,0.80005 0.53762,1.30265 l 0,13.41475 c 0,0.5243 -0.22136,1.00078 -0.57796,1.34592 -0.35663,0.34464 -0.84898,0.55886 -1.39146,0.55886 l -6.93419,0 0,-1.28714 6.93419,0 c 0.17499,0 0.33468,-0.0694 0.45065,-0.18215 0.116,-0.1123 0.18786,-0.26645 0.18786,-0.43549 l 0,-13.41475 c 0,-0.15844 -0.062,-0.30364 -0.16368,-0.41327 -0.008,-0.0126 -0.0161,-0.0151 -0.0242,-0.0227 -0.11598,-0.11229 -0.27568,-0.18192 -0.45066,-0.18192 l -6.9342,0 0,-1.28712"
         inkscape:connector-curvature="0"
         style="fill:#2c5aa0;fill-opacity:1;fill-rule:nonzero" />
      <path
         id="path4100"
         d="m 28.762425,898.48942 17.380343,0 c 0.898654,0 1.633856,0.71137 1.633856,1.58081 l 0,16.81089 c 0,0.86918 -0.735202,1.5803 -1.633856,1.5803 l -17.380343,0 c -0.898626,0 -1.633903,-0.71112 -1.633903,-1.5803 l 0,-16.81089 c 0,-0.86944 0.735277,-1.58081 1.633903,-1.58081"
         inkscape:connector-curvature="0"
         style="fill:#d5e5ff;fill-opacity:1;fill-rule:evenodd" />
      <path
         id="path4102"
         d="m 28.762425,897.84592 8.690313,0 0,1.28751 -8.690313,0 c -0.265601,0 -0.507742,0.10594 -0.683612,0.27564 -0.175789,0.16968 -0.284946,0.40392 -0.284946,0.66116 l 0,16.81089 c 0,0.25672 0.109157,0.49098 0.284946,0.66117 0.17587,0.16991 0.417918,0.27564 0.683612,0.27564 l 8.690313,0 0,1.28712 -8.690313,0 c -0.632933,0 -1.207929,-0.25014 -1.624453,-0.65283 -0.416262,-0.40279 -0.674876,-0.95912 -0.674876,-1.5711 l 0,-16.81089 c 0,-0.61247 0.258614,-1.16869 0.674876,-1.57109 0.416524,-0.40318 0.99152,-0.65322 1.624453,-0.65322 z m 8.690313,0 8.69003,0 c 0.632962,0 1.208044,0.25004 1.624325,0.65322 0.416505,0.4024 0.674879,0.95862 0.674879,1.57109 l 0,16.81089 c 0,0.61198 -0.258374,1.16831 -0.674879,1.5711 -0.416281,0.40269 -0.991363,0.65283 -1.624325,0.65283 l -8.69003,0 0,-1.28712 8.69003,0 c 0.265472,0 0.507655,-0.10595 0.68353,-0.27564 0.175871,-0.17019 0.284987,-0.40445 0.284987,-0.66117 l 0,-16.81089 c 0,-0.25724 -0.109116,-0.4911 -0.284987,-0.66116 -0.175875,-0.17018 -0.418058,-0.27564 -0.68353,-0.27564 l -8.69003,0 0,-1.28751"
         inkscape:connector-curvature="0"
         style="fill:#2c5aa0;fill-opacity:1;fill-rule:nonzero" />
      <path
         id="path4108"
         d="m 131.61762,941.85976 6.98719,0 c 0.36129,0 0.65691,0.28598 0.65691,0.63542 l 0,6.75847 c 0,0.34943 -0.29562,0.63543 -0.65691,0.63543 l -6.98719,0 c -0.36126,0 -0.65691,-0.286 -0.65691,-0.63543 l 0,-6.75847 c 0,-0.34944 0.29565,-0.63542 0.65691,-0.63542"
         inkscape:connector-curvature="0"
         style="fill:#deaa87;fill-opacity:1;fill-rule:evenodd" />
      <path
         id="path4110"
         d="m 131.61762,941.21626 3.49371,0 0,1.28699 -3.48527,0 0,6.74206 3.48527,0 0,1.28728 -3.49371,0 c -0.36415,0 -0.69506,-0.1437 -0.93457,-0.37518 -0.0162,-0.015 -0.0314,-0.0329 -0.0456,-0.0493 -0.21225,-0.22685 -0.34199,-0.52707 -0.34199,-0.8547 l 0,-6.75848 c 0,-0.35057 0.14858,-0.6697 0.38768,-0.90122 l 0.002,0 c 0.23952,-0.23147 0.56953,-0.37517 0.93194,-0.37517 z m 3.49371,0 3.49348,0 c 0.36263,0 0.69263,0.14369 0.93195,0.37517 l 9.5e-4,0 9.6e-4,0 c 0.23929,0.23149 0.38786,0.55155 0.38786,0.90375 l 0,6.75847 c 0,0.35222 -0.14857,0.67226 -0.38786,0.90376 -0.23953,0.23148 -0.57021,0.37518 -0.93461,0.37518 l -3.49347,0 0,-1.28728 3.48506,0 0,-6.74206 -3.48506,0 0,-1.28699"
         inkscape:connector-curvature="0"
         style="fill:#2c5aa0;fill-opacity:1;fill-rule:nonzero" />
      <path
         id="path4112"
         d="m 117.1757,916.55466 17.38029,0 c 0.89866,0 1.63384,0.71112 1.63384,1.58032 l 0,16.81114 c 0,0.86917 -0.73518,1.58029 -1.63384,1.58029 l -17.38029,0 c -0.89865,0 -1.63385,-0.71112 -1.63385,-1.58029 l 0,-16.81114 c 0,-0.8692 0.7352,-1.58032 1.63385,-1.58032"
         inkscape:connector-curvature="0"
         style="fill:#dde9af;fill-opacity:1;fill-rule:evenodd" />
      <path
         id="path4114"
         d="m 117.1757,915.91117 8.69026,0 0,1.287 -8.69026,0 c -0.26545,0 -0.50765,0.10594 -0.68351,0.27564 -0.17587,0.17018 -0.28498,0.40444 -0.28498,0.66117 l 0,16.81114 c 0,0.25696 0.10911,0.49097 0.28498,0.66117 0.17586,0.17005 0.41806,0.27563 0.68351,0.27563 l 8.69026,0 0,1.28713 -8.69026,0 c -0.63296,0 -1.20803,-0.24992 -1.6243,-0.65283 -0.41651,-0.40267 -0.6749,-0.95887 -0.6749,-1.5711 l 0,-16.81114 c 0,-0.61199 0.25839,-1.16843 0.6749,-1.57111 0.41627,-0.4028 0.99134,-0.6527 1.6243,-0.6527 z m 8.69026,0 8.69003,0 c 0.63295,0 1.20805,0.2499 1.62455,0.6527 0.41605,0.40268 0.67465,0.95912 0.67465,1.57111 l 0,16.81114 c 0,0.61198 -0.2586,1.16843 -0.67465,1.5711 -0.4165,0.40291 -0.9916,0.65283 -1.62455,0.65283 l -8.69003,0 0,-1.28713 8.69003,0 c 0.26593,0 0.50765,-0.10594 0.68354,-0.27563 0.17588,-0.16995 0.28498,-0.40421 0.28498,-0.66117 l 0,-16.81114 c 0,-0.25673 -0.1091,-0.49099 -0.28498,-0.66117 -0.17589,-0.17005 -0.41786,-0.27564 -0.68354,-0.27564 l -8.69003,0 0,-1.287"
         inkscape:connector-curvature="0"
         style="fill:#2c5aa0;fill-opacity:1;fill-rule:nonzero" />
      <path
         id="path4116"
         d="m 135.80527,895.48261 13.86885,0 c 0.71723,0 1.30383,0.5673 1.30383,1.26112 l 0,13.41452 c 0,0.69371 -0.5866,1.26127 -1.30383,1.26127 l -13.86885,0 c -0.71701,0 -1.30383,-0.56756 -1.30383,-1.26127 l 0,-13.41452 c 0,-0.69382 0.58682,-1.26112 1.30383,-1.26112"
         inkscape:connector-curvature="0"
         style="fill:#afe9c6;fill-opacity:1;fill-rule:evenodd" />
      <path
         id="path4118"
         d="m 135.80527,894.83897 6.93465,0 0,1.28713 -6.93465,0 c -0.17585,0 -0.33575,0.0694 -0.45175,0.1809 -0.11534,0.11229 -0.18674,0.26644 -0.18674,0.43673 l 0,13.41452 c 0,0.16916 0.0721,0.32346 0.18806,0.4356 l -9.5e-4,9.2e-4 c 0.11599,0.11105 0.27589,0.18066 0.45175,0.18066 l 6.93465,0 0,1.28725 -6.93465,0 c -0.54025,0 -1.03193,-0.21407 -1.38879,-0.55923 l -9.5e-4,0 -9.6e-4,0 c -0.35661,-0.34477 -0.57795,-0.82112 -0.57795,-1.34565 l 0,-13.41452 c 0,-0.52277 0.22134,-0.99835 0.57795,-1.34327 l 0.002,0 c 0.35683,-0.34464 0.84851,-0.55872 1.38877,-0.55872 z m 6.93465,0 6.9342,0 c 0.54246,0 1.03482,0.21407 1.39144,0.55886 0.0142,0.0138 0.0278,0.029 0.0403,0.0429 0.33267,0.34112 0.53759,0.80017 0.53759,1.30277 l 0,13.41451 c 0,0.52441 -0.22133,1.00089 -0.57796,1.34566 -0.35661,0.34514 -0.84897,0.55922 -1.39145,0.55922 l -6.93417,0 0,-1.28737 6.93417,0 c 0.175,0 0.33445,-0.0694 0.45066,-0.18192 0.11577,-0.11226 0.18785,-0.26643 0.18785,-0.43559 l 0,-13.41451 c 0,-0.15883 -0.0622,-0.30378 -0.16367,-0.41338 -0.008,-0.0126 -0.0162,-0.0151 -0.0242,-0.0227 -0.11621,-0.11229 -0.27565,-0.18166 -0.45064,-0.18166 l -6.93418,0 0,-1.28713"
         inkscape:connector-curvature="0"
         style="fill:#2c5aa0;fill-opacity:1;fill-rule:nonzero" />
      <path
         id="path4120"
         d="m 151.41974,919.1674 21.79504,0 c 1.12711,0 2.04904,0.89178 2.04904,1.98172 l 0,21.08127 c 0,1.08996 -0.92193,1.98173 -2.04904,1.98173 l -21.79504,0 c -1.12687,0 -2.04882,-0.89177 -2.04882,-1.98173 l 0,-21.08127 c 0,-1.08994 0.92195,-1.98172 2.04882,-1.98172"
         inkscape:connector-curvature="0"
         style="fill:#e9afaf;fill-opacity:1;fill-rule:evenodd" />
      <path
         id="path4122"
         d="m 151.41974,918.5239 10.89763,0 0,1.28712 -10.89763,0 c -0.37969,0 -0.72542,0.15076 -0.97651,0.39359 -0.25105,0.24286 -0.40697,0.57729 -0.40697,0.94451 l 0,21.08127 c 0,0.36735 0.15592,0.70178 0.40697,0.94462 0.25109,0.24272 0.59682,0.39359 0.97651,0.39359 l 10.89763,0 0,1.28726 -10.89763,0 c -0.74696,0 -1.42561,-0.29531 -1.91728,-0.77079 -0.49168,-0.47545 -0.79709,-1.13221 -0.79709,-1.85468 l 0,-21.08127 c 0,-0.72247 0.30541,-1.37909 0.79709,-1.85445 0.49167,-0.4756 1.17032,-0.77077 1.91728,-0.77077 z m 10.89763,0 10.89741,0 c 0.7472,0 1.42605,0.29517 1.91752,0.77077 0.49169,0.47536 0.79685,1.13198 0.79685,1.85445 l 0,21.08127 c 0,0.72273 -0.30516,1.37923 -0.79685,1.85468 -0.49147,0.4756 -1.17032,0.77079 -1.91752,0.77079 l -10.89741,0 0,-1.28726 10.89741,0 c 0.37992,0 0.72564,-0.15061 0.97673,-0.39359 0.25106,-0.24284 0.40696,-0.57714 0.40696,-0.94462 l 0,-21.08127 c 0,-0.36722 -0.1559,-0.70165 -0.40696,-0.94451 -0.25109,-0.24283 -0.59681,-0.39359 -0.97673,-0.39359 l -10.89741,0 0,-1.28712"
         inkscape:connector-curvature="0"
         style="fill:#2c5aa0;fill-opacity:1;fill-rule:nonzero" />
      <path
         id="path4132"
         d="m 138.19475,904.04946 0.3544,0 0,-0.0921 c -0.26704,0 -0.48349,-0.20952 -0.48349,-0.46788 0,-0.25847 0.21645,-0.4679 0.48349,-0.4679 l 0,-0.0897 -0.3544,7.5e-4 c -1.06166,0 -1.01797,1.11669 0,1.11669 z m 0.3544,0 8.38129,0 0,-0.0921 c -0.26722,0 -0.48348,-0.20952 -0.48348,-0.46788 0,-0.25847 0.21626,-0.4679 0.48348,-0.4679 l 0,-0.0897 c -2.79352,0 -5.58775,0 -8.38129,0 l 0,0.0897 c 0.26703,0 0.4837,0.20943 0.4837,0.4679 0,0.25836 -0.21667,0.46788 -0.4837,0.46788 l 0,0.0921 z m 8.38129,0 0.35442,0 c 1.0182,0 1.06166,-1.11505 0,-1.11683 l -0.35442,-6.2e-4 0,0.0897 c 0.26705,0 0.48372,0.20943 0.48372,0.4679 0,0.25824 -0.21667,0.4679 -0.48372,0.4679 l 0,0.0921"
         inkscape:connector-curvature="0"
         style="fill:#ffffff;fill-opacity:1;fill-rule:evenodd" />
      <path
         id="path4134"
         d="m 143.38199,899.12486 c -0.26728,0 -0.48351,0.20955 -0.48351,0.46778 0,0.25836 0.21623,0.4679 0.48351,0.4679 0.26701,0 0.48369,-0.20954 0.48369,-0.4679 0,-0.25823 -0.21668,-0.46778 -0.48369,-0.46778"
         inkscape:connector-curvature="0"
         style="fill:#ffffff;fill-opacity:1;fill-rule:evenodd" />
      <path
         id="path4136"
         d="m 147.11829,903.36496 -3.30007,-3.57023 c -0.0762,-0.0821 -0.20826,-0.0897 -0.29342,-0.0164 l 0,0 c -0.0855,0.0745 -0.0925,0.20173 -0.0163,0.28383 l 3.2999,3.57025 c 0.0761,0.0822 0.20846,0.0896 0.29383,0.0164 l 0,0 c 0.0851,-0.0731 0.0924,-0.20147 0.0161,-0.28385"
         inkscape:connector-curvature="0"
         style="fill:#ffffff;fill-opacity:1;fill-rule:evenodd" />
      <path
         id="path4138"
         d="m 142.09763,899.12486 c 0.26704,0 0.48372,0.20955 0.48372,0.46778 0,0.25836 -0.21668,0.4679 -0.48372,0.4679 -0.26701,0 -0.48347,-0.20954 -0.48347,-0.4679 0,-0.25823 0.21646,-0.46778 0.48347,-0.46778"
         inkscape:connector-curvature="0"
         style="fill:#ffffff;fill-opacity:1;fill-rule:evenodd" />
      <path
         id="path4140"
         d="m 138.36128,903.36496 3.59951,-3.89393 c 0.0764,-0.0821 0.20804,-0.0897 0.29342,-0.0164 l 0,0 c 0.0853,0.0745 0.0926,0.2016 0.0164,0.28386 l -3.59951,3.89407 c -0.0761,0.0821 -0.20823,0.0897 -0.29339,0.0164 l 0,0 c -0.0855,-0.0732 -0.0926,-0.20147 -0.0163,-0.28383"
         inkscape:connector-curvature="0"
         style="fill:#ffffff;fill-opacity:1;fill-rule:evenodd" />
      <path
         id="path4142"
         d="m 139.90334,907.77711 c -0.84276,0 -1.11133,-0.39963 -1.20649,-0.93011 l -0.44246,-2.46499 1.68843,0 0,0.33606 c -0.0426,-0.0138 -0.0878,-0.0202 -0.13418,-0.0202 l 0,0 c -0.21224,0 -0.36373,0.15464 -0.3369,0.34351 0.0397,0.28144 0.08,0.56264 0.12001,0.84408 0.0402,0.28119 0.0799,0.5625 0.11932,0.84371 0.0189,0.13258 0.11199,0.24815 0.23175,0.30528 l 0,0.74327 -0.0394,0 z m 0.0394,-3.3951 1.39077,0 0,0.3194 c -0.0195,0 -0.0394,0 -0.0599,0 l 0,0 c -0.21224,0 -0.37346,0.15467 -0.35884,0.34352 0.0225,0.28145 0.0446,0.56264 0.0672,0.84409 0.0225,0.2812 0.0441,0.56251 0.0664,0.8437 0.0123,0.15895 0.13328,0.29328 0.28519,0.3319 l 0,0.71667 -1.39079,0 0,-0.74329 c 0.0507,0.024 0.10652,0.0379 0.163,0.0379 l 0,0 c 0.19097,0 0.32958,-0.15453 0.30897,-0.34326 -0.0302,-0.28119 -0.0605,-0.56251 -0.0914,-0.8437 -0.0308,-0.28145 -0.0624,-0.56263 -0.0923,-0.84409 -0.0157,-0.14759 -0.1353,-0.27438 -0.28832,-0.3227 l 0,-0.33607 z m 1.39077,0 1.40521,0 0,0.31525 c -0.21138,2.5e-4 -0.38303,0.15464 -0.3797,0.34351 0.004,0.28144 0.008,0.56264 0.0139,0.84408 0.005,0.2812 0.008,0.56251 0.0133,0.84371 0.003,0.18872 0.16255,0.34326 0.35218,0.34326 l 3.6e-4,0 0,0.70529 -1.40519,0 0,-0.71665 c 0.0289,0.0126 0.0585,0.0126 0.0888,0.0126 l 0,0 c 0.19029,0 0.33889,-0.15454 0.33022,-0.34325 -0.0127,-0.28121 -0.0254,-0.56253 -0.0384,-0.84372 -0.0131,-0.28145 -0.0264,-0.56263 -0.0392,-0.84407 -0.007,-0.17082 -0.15613,-0.31362 -0.34154,-0.33935 l 0,-0.31943 z m 1.40521,0 1.40475,0 0,0.31953 c -0.18475,0.0265 -0.33333,0.16868 -0.34109,0.33923 -0.0129,0.28144 -0.0268,0.56264 -0.0393,0.84408 -0.0127,0.2812 -0.0264,0.56251 -0.0393,0.84371 -0.008,0.18872 0.14083,0.34326 0.33111,0.34326 l 0,0 c 0.0302,0 0.0598,0 0.0884,-0.0126 l 0,0.71653 -1.40477,0 0,-0.70532 c 0.19074,-2.4e-4 0.34865,-0.15464 0.35198,-0.34324 0.004,-0.2812 0.009,-0.56251 0.0137,-0.84371 0.004,-0.28144 0.008,-0.56263 0.0142,-0.84409 0.003,-0.18884 -0.167,-0.34351 -0.37925,-0.34351 l -5.1e-4,0 0,-0.31526 z m 1.40475,0 1.39147,0 0,0.33606 c -0.15283,0.0493 -0.27281,0.17536 -0.28877,0.3227 -0.0301,0.28144 -0.0618,0.56264 -0.0922,0.84408 -0.0306,0.2812 -0.0617,0.56251 -0.0921,0.84371 -0.0204,0.18872 0.11888,0.34326 0.30983,0.34326 l 0,0 c 0.0568,0 0.11245,-0.0138 0.16324,-0.0379 l 0,0.74353 -1.39147,0 0,-0.71653 c 0.15171,-0.0391 0.27235,-0.17309 0.28501,-0.33203 0.0223,-0.28119 0.045,-0.56249 0.067,-0.8437 0.0217,-0.28144 0.0452,-0.56264 0.067,-0.84408 0.0147,-0.18887 -0.14526,-0.34351 -0.35751,-0.34351 l 0,0 c -0.0209,0 -0.0413,0 -0.0616,0 l 0,-0.31955 z m 1.39147,0 1.69018,0 -0.44246,2.46499 c -0.0954,0.53048 -0.36373,0.93011 -1.20648,0.93011 l -0.0413,0 0,-0.74353 c 0.11974,-0.0567 0.21335,-0.17245 0.23196,-0.30502 0.0397,-0.2812 0.0802,-0.56251 0.12022,-0.84371 0.0397,-0.2812 0.0802,-0.56264 0.11998,-0.84408 0.0267,-0.18887 -0.12464,-0.34351 -0.33689,-0.34351 l 0,0 c -0.0466,0 -0.0921,0.0126 -0.13527,0.0201 l 0,-0.33607"
         inkscape:connector-curvature="0"
         style="fill:#ffffff;fill-opacity:1;fill-rule:evenodd" />
      <path
         id="path4144"
         d="m 74.707609,958.05743 -3.689757,-6.1816 c -0.371261,-0.62154 -0.595699,-1.33847 -0.595699,-2.10886 0,-2.28903 1.918617,-4.14498 4.285456,-4.14498 2.366849,0 4.285688,1.85595 4.285688,4.14498 0,0.77039 -0.224661,1.48732 -0.5957,2.10886 l -3.689988,6.1816"
         inkscape:connector-curvature="0"
         style="fill:#a3ccf0;fill-opacity:1;fill-rule:evenodd" />
      <path
         id="path4146"
         d="m 74.707609,946.83607 c 1.673563,0 3.030416,1.31235 3.030416,2.9309 0,1.61877 -1.356853,2.93114 -3.030416,2.93114 -1.673556,0 -3.030184,-1.31237 -3.030184,-2.93114 0,-1.61855 1.356628,-2.9309 3.030184,-2.9309"
         inkscape:connector-curvature="0"
         style="fill:#ffffff;fill-opacity:1;fill-rule:evenodd" />
      <path
         id="path4192"
         d="m 133.17297,924.9203 -7.30701,5.10224 -7.30722,-5.10224 7.30722,-5.10246 7.30701,5.10246"
         inkscape:connector-curvature="0"
         style="fill:#db9600;fill-opacity:1;fill-rule:evenodd" />
      <path
         id="path4194"
         d="m 120.55476,933.26323 10.62199,0 0,-12.54895 -10.62199,0 0,12.54895 z"
         inkscape:connector-curvature="0"
         style="fill:#fffdfa;fill-opacity:1;fill-rule:evenodd" />
      <path
         id="path4196"
         d="m 122.21235,923.0221 3.03494,0 0,-0.59191 -3.03494,0 0,0.59191 z"
         inkscape:connector-curvature="0"
         style="fill:#ffde96;fill-opacity:1;fill-rule:evenodd" />
      <path
         id="path4198"
         d="m 122.18263,924.17096 7.36649,0 0,-0.59177 -7.36649,0 0,0.59177 z"
         inkscape:connector-curvature="0"
         style="fill:#ffde96;fill-opacity:1;fill-rule:evenodd" />
      <path
         id="path4200"
         d="m 122.18263,925.27366 7.36649,0 0,-0.5919 -7.36649,0 0,0.5919 z"
         inkscape:connector-curvature="0"
         style="fill:#ffde96;fill-opacity:1;fill-rule:evenodd" />
      <path
         id="path4202"
         d="m 122.18263,926.37598 7.36649,0 0,-0.59153 -7.36649,0 0,0.59153 z"
         inkscape:connector-curvature="0"
         style="fill:#ffde96;fill-opacity:1;fill-rule:evenodd" />
      <path
         id="path4204"
         d="m 122.18263,927.47868 7.36649,0 0,-0.59191 -7.36649,0 0,0.59191 z"
         inkscape:connector-curvature="0"
         style="fill:#ffde96;fill-opacity:1;fill-rule:evenodd" />
      <path
         id="path4206"
         d="m 122.18263,928.58123 7.36649,0 0,-0.59178 -7.36649,0 0,0.59178 z"
         inkscape:connector-curvature="0"
         style="fill:#ffde96;fill-opacity:1;fill-rule:evenodd" />
      <path
         id="path4208"
         d="m 122.18263,929.68367 7.36649,0 0,-0.59176 -7.36649,0 0,0.59176 z"
         inkscape:connector-curvature="0"
         style="fill:#ffde96;fill-opacity:1;fill-rule:evenodd" />
      <path
         id="path4210"
         d="m 118.55874,933.26323 14.61423,0 0,-8.34293 -7.30722,5.10224 -7.30701,-5.10224 0,8.34293"
         inkscape:connector-curvature="0"
         style="fill:#ffae00;fill-opacity:1;fill-rule:evenodd" />
      <path
         id="path4212"
         d="m 118.55874,933.26323 14.61423,0 -5.9741,-4.1712 -2.66581,0 0,0 -5.97432,4.1716"
         inkscape:connector-curvature="0"
         style="fill:#ffcd61;fill-opacity:1;fill-rule:evenodd" />
      <path
         id="path4214"
         d="m 40.282219,904.98295 c 3.030854,0 5.487957,2.05036 5.487957,4.57971 0,1.51838 -0.886015,2.86403 -2.249962,3.69726 l 0.773131,1.89064 -1.894008,-1.36167 c -0.651595,0.22732 -1.366613,0.3531 -2.117118,0.3531 -3.030855,0 -5.488046,-2.05011 -5.488046,-4.57933 0,-2.52935 2.457191,-4.57971 5.488046,-4.57971"
         inkscape:connector-curvature="0"
         style="fill:#bcd48e;fill-opacity:1;fill-rule:evenodd" />
      <path
         id="path4216"
         d="m 34.622974,901.80003 c -3.030846,0 -5.48793,2.05059 -5.48793,4.57969 0,1.51863 0.885898,2.86416 2.249761,3.69739 l -0.773016,1.89102 1.894053,-1.36207 c 0.651475,0.22746 1.366635,0.35309 2.117132,0.35309 3.030923,0 5.488033,-2.05008 5.488033,-4.57943 0,-2.5291 -2.45711,-4.57969 -5.488033,-4.57969"
         inkscape:connector-curvature="0"
         style="fill:#a3ccf0;fill-opacity:1;fill-rule:evenodd" />
      <path
         id="path4218"
         d="m 32.222735,907.18911 c 0.409583,0 0.743835,-0.32331 0.743835,-0.71932 0,-0.39636 -0.334252,-0.71969 -0.743835,-0.71969 -0.409604,0 -0.743758,0.32333 -0.743758,0.71969 0,0.39601 0.334154,0.71932 0.743758,0.71932"
         inkscape:connector-curvature="0"
         style="fill:#ffffff;fill-opacity:1;fill-rule:evenodd" />
      <path
         id="path4220"
         d="m 34.622974,907.18911 c 0.409699,0 0.743924,-0.32331 0.743924,-0.71932 0,-0.39636 -0.334225,-0.71969 -0.743924,-0.71969 -0.409601,0 -0.743737,0.32333 -0.743737,0.71969 0,0.39601 0.334136,0.71932 0.743737,0.71932"
         inkscape:connector-curvature="0"
         style="fill:#ffffff;fill-opacity:1;fill-rule:evenodd" />
      <path
         id="path4222"
         d="m 37.023377,907.18911 c 0.409631,0 0.743633,-0.32331 0.743633,-0.71932 0,-0.39636 -0.334002,-0.71969 -0.743633,-0.71969 -0.40963,0 -0.743854,0.32333 -0.743854,0.71969 0,0.39601 0.334224,0.71932 0.743854,0.71932"
         inkscape:connector-curvature="0"
         style="fill:#ffffff;fill-opacity:1;fill-rule:evenodd" />
      <path
         id="path4224"
         d="m 102.88993,953.86035 10.81913,0 0,0.48807 -10.81913,1.2e-4 0,-0.48819"
         inkscape:connector-curvature="0"
         style="fill:#ffae00;fill-opacity:1;fill-rule:evenodd" />
      <path
         id="path4226"
         d="m 102.88993,953.86035 2.42097,0 0,-10.21429 -2.42097,0 0,10.21429 z"
         inkscape:connector-curvature="0"
         style="fill:#ffffff;fill-opacity:1;fill-rule:evenodd" />
      <path
         id="path4228"
         d="m 105.68925,953.86035 2.42097,0 0,-6.36299 -2.42097,0 0,6.36299 z"
         inkscape:connector-curvature="0"
         style="fill:#ffae00;fill-opacity:1;fill-rule:evenodd" />
      <path
         id="path4230"
         d="m 108.48858,949.6524 2.42119,-1.1e-4 0,4.20818 -2.42119,0 0,-4.20794"
         inkscape:connector-curvature="0"
         style="fill:#7f9950;fill-opacity:1;fill-rule:evenodd" />
      <path
         id="path4232"
         d="m 111.28789,953.86035 2.42113,0 0,-6.1812 -2.42113,0 0,6.1812 z"
         inkscape:connector-curvature="0"
         style="fill:#a3ccf0;fill-opacity:1;fill-rule:evenodd" />
      <path
         id="path4108-9"
         d="m 49.507305,940.44849 6.987188,0 c 0.361286,0 0.656915,0.28598 0.656915,0.63543 l 0,6.75847 c 0,0.34943 -0.295629,0.63543 -0.656915,0.63543 l -6.987188,0 c -0.361275,0 -0.656915,-0.286 -0.656915,-0.63543 l 0,-6.75847 c 0,-0.34945 0.29564,-0.63543 0.656915,-0.63543"
         inkscape:connector-curvature="0"
         style="fill:#beb7c8;fill-opacity:1;fill-rule:evenodd" />
      <path
         id="path4110-8"
         d="m 49.507305,939.805 3.493705,0 0,1.287 -3.485278,0 0,6.74205 3.485278,0 0,1.28727 -3.493705,0 c -0.364162,0 -0.69506,-0.1437 -0.934585,-0.37518 -0.01624,-0.0151 -0.03131,-0.0329 -0.04565,-0.0493 -0.212246,-0.22683 -0.341978,-0.52708 -0.341978,-0.85468 l 0,-6.75847 c 0,-0.35058 0.148582,-0.66973 0.38766,-0.90124 l 0.0021,0 c 0.239534,-0.23147 0.56953,-0.37517 0.93193,-0.37517 z m 3.493705,0 3.493483,0 c 0.362615,0 0.692621,0.14367 0.93193,0.37518 l 0.0011,0 9.55e-4,0 c 0.2393,0.23146 0.387884,0.55152 0.387884,0.90374 l 0,6.75847 c 0,0.35222 -0.148584,0.67225 -0.387884,0.90375 -0.239523,0.23148 -0.570198,0.37518 -0.934594,0.37518 l -3.493483,0 0,-1.28727 3.485068,0 0,-6.74205 -3.485068,0 0,-1.287"
         inkscape:connector-curvature="0"
         style="fill:#2c5aa0;fill-opacity:1;fill-rule:nonzero" />
      <path
         id="path5200"
         d="m 105.43498,921.99519 c 0,-7.46883 -6.15499,-13.52336 -13.747926,-13.52336 -7.592946,0 -13.748084,6.05453 -13.748084,13.52336 0,7.46854 6.155138,13.5232 13.748084,13.5232 7.592936,0 13.747926,-6.05466 13.747926,-13.5232"
         inkscape:connector-curvature="0"
         style="fill:#5a7185;fill-opacity:1;fill-rule:nonzero" />
      <path
         id="path5202"
         d="m 103.37118,921.99519 c 0,-6.3476 -5.231193,-11.49314 -11.684126,-11.49314 -6.452928,0 -11.684134,5.14554 -11.684134,11.49314 0,6.3473 5.231206,11.49298 11.684134,11.49298 6.452933,0 11.684126,-5.14568 11.684126,-11.49298"
         inkscape:connector-curvature="0"
         style="fill:#eef9f7;fill-opacity:1;fill-rule:nonzero" />
      <path
         id="path5204"
         d="m 92.232687,912.69968 c 0,-0.29649 -0.244376,-0.53672 -0.545633,-0.53672 -0.301255,0 -0.545781,0.24023 -0.545781,0.53672 0,0.29634 0.244526,0.53671 0.545781,0.53671 0.301257,0 0.545633,-0.24037 0.545633,-0.53671"
         inkscape:connector-curvature="0"
         style="fill:#27b9db;fill-opacity:1;fill-rule:nonzero" />
      <path
         id="path5206"
         d="m 98.754996,915.80183 c 0.213357,-0.20974 0.213212,-0.54959 0,-0.75933 -0.213086,-0.20961 -0.558594,-0.20961 -0.771661,0 -0.213222,0.20974 -0.213222,0.54959 0,0.75933 0.213067,0.20945 0.558575,0.20973 0.771661,0"
         inkscape:connector-curvature="0"
         style="fill:#5a7185;fill-opacity:1;fill-rule:nonzero" />
      <path
         id="path5208"
         d="m 101.13704,922.53192 c 0.30172,0 0.54563,-0.24039 0.54579,-0.53673 0,-0.29663 -0.24424,-0.53685 -0.54579,-0.53685 -0.30141,0 -0.54579,0.24022 -0.54579,0.53685 0,0.29634 0.24438,0.53673 0.54579,0.53673"
         inkscape:connector-curvature="0"
         style="fill:#27b9db;fill-opacity:1;fill-rule:nonzero" />
      <path
         id="path5210"
         d="m 97.983335,928.94773 c 0.213222,0.20975 0.558575,0.20944 0.771962,0 0.213202,-0.20975 0.213056,-0.54959 -2.53e-4,-0.75934 -0.213086,-0.20958 -0.558284,-0.20958 -0.771496,0 -0.213076,0.20975 -0.213377,0.54959 -1.26e-4,0.75934"
         inkscape:connector-curvature="0"
         style="fill:#5a7185;fill-opacity:1;fill-rule:nonzero" />
      <path
         id="path5212"
         d="m 91.141273,931.29086 c 0,0.29647 0.244677,0.53641 0.545933,0.53686 0.301556,0 0.545481,-0.24039 0.545481,-0.53686 0,-0.29647 -0.243925,-0.53687 -0.545481,-0.53687 -0.301256,0 -0.545933,0.2404 -0.545933,0.53687"
         inkscape:connector-curvature="0"
         style="fill:#27b9db;fill-opacity:1;fill-rule:nonzero" />
      <path
         id="path5214"
         d="m 84.618973,928.18839 c -0.213229,0.20975 -0.212926,0.54959 0,0.75964 0.213227,0.20975 0.558574,0.20945 0.771949,0 0.213227,-0.20975 0.213227,-0.54932 0,-0.75888 -0.213375,-0.2098 -0.558722,-0.21011 -0.771949,0"
         inkscape:connector-curvature="0"
         style="fill:#5a7185;fill-opacity:1;fill-rule:nonzero" />
      <path
         id="path5216"
         d="m 82.237062,921.45834 c -0.301406,0 -0.54563,0.24053 -0.545935,0.53714 0,0.29649 0.244529,0.53644 0.545935,0.53644 0.301556,0 0.545631,-0.23995 0.545631,-0.53644 0,-0.29661 -0.244075,-0.53714 -0.545631,-0.53714"
         inkscape:connector-curvature="0"
         style="fill:#27b9db;fill-opacity:1;fill-rule:nonzero" />
      <path
         id="path5218"
         d="m 85.390922,915.0425 c -0.213375,-0.20975 -0.558722,-0.20945 -0.772401,0 -0.213078,0.20974 -0.212777,0.54959 4.56e-4,0.75933 0.213228,0.20973 0.558424,0.20973 0.771499,0 0.213377,-0.20974 0.213677,-0.54959 4.59e-4,-0.75933"
         inkscape:connector-curvature="0"
         style="fill:#5a7185;fill-opacity:1;fill-rule:nonzero" />
      <path
         id="path5220"
         d="m 86.669229,917.63547 4.724997,4.64776 c 0.161614,0.15898 0.423894,0.15898 0.585509,0 0.161763,-0.15909 0.161763,-0.41697 0,-0.57609 l -4.724846,-4.64776 c -0.161763,-0.1591 -0.423897,-0.1591 -0.58566,0 -0.161613,0.15913 -0.161613,0.41698 0,0.57609"
         inkscape:connector-curvature="0"
         style="fill:#5a7185;fill-opacity:1;fill-rule:nonzero" />
      <path
         id="path5222"
         d="m 91.604143,915.42218 0,6.57301 c 0,0.0449 0.03717,0.0815 0.08291,0.0815 0.0456,0 0.08278,-0.0364 0.08278,-0.0815 l 0,-6.57301 c 0,-0.045 -0.03716,-0.0815 -0.08278,-0.0815 -0.04574,0 -0.08291,0.0364 -0.08291,0.0815"
         inkscape:connector-curvature="0"
         style="fill:#5a7185;fill-opacity:1;fill-rule:nonzero" />
      <path
         id="path5224"
         d="m 92.101019,926.03622 0,-4.04103 c 0,-0.22498 -0.185388,-0.40734 -0.413965,-0.40734 -0.228725,0 -0.414114,0.18236 -0.414114,0.40734 l 0,4.04103 c 0,0.225 0.185389,0.40735 0.414114,0.40735 0.228577,0 0.413965,-0.18235 0.413965,-0.40735"
         inkscape:connector-curvature="0"
         style="fill:#5a7185;fill-opacity:1;fill-rule:nonzero" />
      <path
         id="path5226"
         d="m 92.232687,921.99519 c 0,-0.29663 -0.244076,-0.53685 -0.545633,-0.53685 -0.301255,0 -0.545781,0.24022 -0.545781,0.53685 0,0.29634 0.244526,0.53673 0.545781,0.53673 0.301557,0 0.545633,-0.24039 0.545633,-0.53673"
         inkscape:connector-curvature="0"
         style="fill:#5a7185;fill-opacity:1;fill-rule:nonzero" />
      <path
         id="path5260"
         d="m 168.19754,940.67707 c 0,0.70882 -0.51172,1.2835 -1.14286,1.2835 l -8.73156,0 c -0.63112,0 -1.14283,-0.57468 -1.14283,-1.2835 l 0,-19.03843 c 0,-0.70882 0.51171,-1.28348 1.14283,-1.28348 l 8.73156,0 c 0.63114,0 1.14286,0.57466 1.14286,1.28348 l 0,19.03843"
         inkscape:connector-curvature="0"
         style="fill:#164450;fill-opacity:1;fill-rule:nonzero" />
      <path
         id="path5262"
         d="m 167.08384,941.96057 -4.3658,0 4.33664,0 c 0.63114,0 1.14286,-0.57468 1.14286,-1.2835 l 0,-19.03843 c 0,-0.70882 -0.51172,-1.28348 -1.14286,-1.28348 l 0.0292,0 c 0.63112,0 1.14283,0.57466 1.14283,1.28348 l 0,19.03843 c 0,0.70882 -0.51171,1.2835 -1.14283,1.2835"
         inkscape:connector-curvature="0"
         style="fill:#4c98a7;fill-opacity:1;fill-rule:nonzero" />
      <path
         id="path5264"
         d="m 167.05468,941.96057 -4.33664,0 0,-1.17664 1.30556,0 c 0.21042,0 0.38085,-0.1917 0.38085,-0.42786 0,-0.23634 -0.17043,-0.42773 -0.38085,-0.42773 l -1.30556,0 0,-19.57318 4.33664,0 c 0.63114,0 1.14286,0.57466 1.14286,1.28348 l 0,19.03843 c 0,0.70882 -0.51172,1.2835 -1.14286,1.2835"
         inkscape:connector-curvature="0"
         style="fill:#164450;fill-opacity:1;fill-rule:nonzero" />
      <path
         id="path5266"
         d="m 158.21441,938.53814 8.85701,0 0,-16.15058 -8.85701,0 0,16.15058 z"
         inkscape:connector-curvature="0"
         style="fill:#f3f9f5;fill-opacity:1;fill-rule:nonzero" />
      <path
         id="path5268"
         d="m 162.71804,940.78393 -1.30539,0 c -0.21043,0 -0.38114,-0.1917 -0.38114,-0.42786 0,-0.23634 0.17071,-0.42773 0.38114,-0.42773 l 1.30539,0 0,0.85559"
         inkscape:connector-curvature="0"
         style="fill:#495e71;fill-opacity:1;fill-rule:nonzero" />
      <path
         id="path5270"
         d="m 164.0236,940.78393 -1.30556,0 0,-0.85559 1.30556,0 c 0.21042,0 0.38085,0.19139 0.38085,0.42773 0,0.23616 -0.17043,0.42786 -0.38085,0.42786"
         inkscape:connector-curvature="0"
         style="fill:#3d5064;fill-opacity:1;fill-rule:nonzero" />
      <path
         id="path5272"
         d="m 165.06486,928.76503 0,-0.13781 c 0,-0.60756 -0.39098,-1.1001 -0.87327,-1.1001 l -0.89797,0 c 0.44656,-0.28269 0.7537,-0.86314 0.7537,-1.53552 0,-0.94947 -0.61085,-1.71906 -1.36441,-1.71906 -0.75356,0 -1.36455,0.76959 -1.36455,1.71906 0,0.67238 0.30728,1.25283 0.75369,1.53552 l -0.82768,0 c -0.48229,0 -0.87328,0.49254 -0.87328,1.1001 l 0,0.13781 4.69377,0"
         inkscape:connector-curvature="0"
         style="fill:#27b9db;fill-opacity:1;fill-rule:nonzero" />
      <path
         id="path5274"
         d="m 159.27138,931.56946 6.8932,0 0,-1.10656 -6.8932,0 0,1.10656 z"
         inkscape:connector-curvature="0"
         style="fill:#abc4c8;fill-opacity:1;fill-rule:nonzero" />
      <path
         id="path5276"
         d="m 159.27138,933.44481 6.8932,0 0,-1.10672 -6.8932,0 0,1.10672 z"
         inkscape:connector-curvature="0"
         style="fill:#abc4c8;fill-opacity:1;fill-rule:nonzero" />
      <path
         id="path5278"
         d="m 159.42867,931.3986 0.50585,0 0,-0.77538 -0.50585,0 0,0.77538 z"
         inkscape:connector-curvature="0"
         style="fill:#5a7185;fill-opacity:1;fill-rule:nonzero" />
      <path
         id="path5280"
         d="m 160.18752,931.3986 0.50586,0 0,-0.77538 -0.50586,0 0,0.77538 z"
         inkscape:connector-curvature="0"
         style="fill:#5a7185;fill-opacity:1;fill-rule:nonzero" />
      <path
         id="path5282"
         d="m 160.94651,931.3986 0.50585,0 0,-0.77538 -0.50585,0 0,0.77538 z"
         inkscape:connector-curvature="0"
         style="fill:#5a7185;fill-opacity:1;fill-rule:nonzero" />
      <path
         id="path5284"
         d="m 161.70536,931.3986 0.50585,0 0,-0.77538 -0.50585,0 0,0.77538 z"
         inkscape:connector-curvature="0"
         style="fill:#5a7185;fill-opacity:1;fill-rule:nonzero" />
      <path
         id="path5286"
         d="m 162.46435,931.3986 0.50585,0 0,-0.77538 -0.50585,0 0,0.77538 z"
         inkscape:connector-curvature="0"
         style="fill:#5a7185;fill-opacity:1;fill-rule:nonzero" />
      <path
         id="path5288"
         d="m 159.42867,933.27906 0.50585,0 0,-0.77541 -0.50585,0 0,0.77541 z"
         inkscape:connector-curvature="0"
         style="fill:#5a7185;fill-opacity:1;fill-rule:nonzero" />
      <path
         id="path5290"
         d="m 160.18752,933.27906 0.50586,0 0,-0.77541 -0.50586,0 0,0.77541 z"
         inkscape:connector-curvature="0"
         style="fill:#5a7185;fill-opacity:1;fill-rule:nonzero" />
      <path
         id="path5292"
         d="m 160.94651,933.27906 0.50585,0 0,-0.77541 -0.50585,0 0,0.77541 z"
         inkscape:connector-curvature="0"
         style="fill:#5a7185;fill-opacity:1;fill-rule:nonzero" />
      <path
         id="path5294"
         d="m 161.70536,933.27906 0.50585,0 0,-0.77541 -0.50585,0 0,0.77541 z"
         inkscape:connector-curvature="0"
         style="fill:#5a7185;fill-opacity:1;fill-rule:nonzero" />
      <path
         id="path5296"
         d="m 162.46435,933.27906 0.50585,0 0,-0.77541 -0.50585,0 0,0.77541 z"
         inkscape:connector-curvature="0"
         style="fill:#5a7185;fill-opacity:1;fill-rule:nonzero" />
      <path
         id="path5298"
         d="m 163.22319,931.3986 0.50584,0 0,-0.77538 -0.50584,0 0,0.77538 z"
         inkscape:connector-curvature="0"
         style="fill:#5a7185;fill-opacity:1;fill-rule:nonzero" />
      <path
         id="path5300"
         d="m 163.98218,931.3986 0.50584,0 0,-0.77538 -0.50584,0 0,0.77538 z"
         inkscape:connector-curvature="0"
         style="fill:#5a7185;fill-opacity:1;fill-rule:nonzero" />
      <path
         id="path5302"
         d="m 164.23501,936.41222 c 0,0.26584 -0.1917,0.4813 -0.42855,0.4813 l -2.17854,0 c -0.23672,0 -0.42856,-0.21546 -0.42856,-0.4813 l 0,-0.77539 c 0,-0.266 0.19184,-0.48131 0.42856,-0.48131 l 2.17854,0 c 0.23685,0 0.42855,0.21531 0.42855,0.48131 l 0,0.77539"
         inkscape:connector-curvature="0"
         style="fill:#f36352;fill-opacity:1;fill-rule:nonzero" />
      <path
         id="path5304"
         d="m 161.83193,936.1876 1.77084,0 0,-0.32612 -1.77084,0 0,0.32612 z"
         inkscape:connector-curvature="0"
         style="fill:#f3f9f5;fill-opacity:1;fill-rule:nonzero" />
      <path
         id="path5228"
         d="m 19.932285,931.52599 c 0,0.39877 -0.314493,0.72198 -0.702298,0.72198 l -3.790605,0 c -0.387894,0 -0.702389,-0.32321 -0.702389,-0.72198 l 0,-2.79071 c 0,-0.39886 0.314495,-0.72205 0.702389,-0.72205 l 3.790605,0 c 0.387805,0 0.702298,0.32319 0.702298,0.72205 l 0,2.79071"
         inkscape:connector-curvature="0"
         style="fill:#2f4355;fill-opacity:1;fill-rule:nonzero" />
      <path
         id="path5230"
         d="m 19.932285,930.21965 -0.791153,0 0,-1.05937 c 0,-0.27736 -0.218704,-0.50219 -0.488509,-0.50219 l -1.158848,0 0,-0.64486 1.736212,0 c 0.387805,0 0.702298,0.32319 0.702298,0.72205 l 0,1.48437"
         inkscape:connector-curvature="0"
         style="fill:#263849;fill-opacity:1;fill-rule:nonzero" />
      <path
         id="path5232"
         d="m 19.141132,931.10099 c 0,0.27727 -0.218704,0.50208 -0.488509,0.50208 l -2.635967,0 c -0.269717,0 -0.488512,-0.22481 -0.488512,-0.50208 l 0,-1.94071 c 0,-0.27736 0.218795,-0.50219 0.488512,-0.50219 l 2.635967,0 c 0.269805,0 0.488509,0.22483 0.488509,0.50219 l 0,1.94071"
         inkscape:connector-curvature="0"
         style="fill:#b7bec8;fill-opacity:1;fill-rule:nonzero" />
      <path
         id="path5234"
         d="m 26.786701,941.59617 c 0,1.29613 -1.02206,2.34667 -2.282757,2.34667 l -14.6567909,0 c -1.2606973,0 -2.2827563,-1.05054 -2.2827563,-2.34667 l 0,-9.02987 c 0,-1.296 1.022059,-2.34665 2.2827563,-2.34665 l 14.6567909,0 c 1.260697,0 2.282757,1.05065 2.282757,2.34665 l 0,9.02987"
         inkscape:connector-curvature="0"
         style="fill:#53676c;fill-opacity:1;fill-rule:nonzero" />
      <path
         id="path5236"
         d="m 24.503944,943.94284 -7.32844,0 0,-13.72319 7.328353,0 c 1.260698,0 2.282756,1.05065 2.282756,2.34665 l 0,9.02987 c 0,1.29613 -1.022058,2.34667 -2.282756,2.34667"
         inkscape:connector-curvature="0"
         style="fill:#53676c;fill-opacity:1;fill-rule:nonzero" />
      <path
         id="path5238"
         d="m 13.592893,943.53789 c 0,0.39442 -0.310543,0.7141 -0.693606,0.7141 l -1.502933,0 c -0.382974,0 -0.693691,-0.31968 -0.693691,-0.7141 l 0,-12.91319 c 0,-0.39443 0.310717,-0.71412 0.693691,-0.71412 l 1.502933,0 c 0.383063,0 0.693606,0.31969 0.693606,0.71412 l 0,12.91319"
         inkscape:connector-curvature="0"
         style="fill:#2f4355;fill-opacity:1;fill-rule:nonzero" />
      <path
         id="path5240"
         d="m 23.648349,943.53789 c 0,0.39442 -0.310631,0.7141 -0.693697,0.7141 l -1.502931,0 c -0.383062,0 -0.693604,-0.31968 -0.693604,-0.7141 l 0,-12.91319 c 0,-0.39443 0.310542,-0.71412 0.693604,-0.71412 l 1.502931,0 c 0.383066,0 0.693697,0.31969 0.693697,0.71412 l 0,12.91319"
         inkscape:connector-curvature="0"
         style="fill:#2f4355;fill-opacity:1;fill-rule:nonzero" />
    </g>
  </g>
</svg>
