<?xml version="1.0" encoding="UTF-8" standalone="no"?>
<svg
   xmlns:dc="http://purl.org/dc/elements/1.1/"
   xmlns:cc="http://creativecommons.org/ns#"
   xmlns:rdf="http://www.w3.org/1999/02/22-rdf-syntax-ns#"
   xmlns:svg="http://www.w3.org/2000/svg"
   xmlns="http://www.w3.org/2000/svg"
   xmlns:sodipodi="http://sodipodi.sourceforge.net/DTD/sodipodi-0.dtd"
   xmlns:inkscape="http://www.inkscape.org/namespaces/inkscape"
   width="1000"
   height="1000"
   id="workactivities"
   version="1.1"
   inkscape:version="0.48.4 r9939"
   sodipodi:docname="WorkActivities.svg">
  <defs
     id="defs3461">
    <inkscape:path-effect
       effect="spiro"
       id="path-effect6454"
       is_visible="true" />
  </defs>
  <sodipodi:namedview
     id="base"
     pagecolor="#ffffff"
     bordercolor="#666666"
     borderopacity="1.0"
     inkscape:pageopacity="0.0"
     inkscape:pageshadow="2"
     inkscape:zoom="0.49497475"
     inkscape:cx="267.72391"
     inkscape:cy="409.38793"
     inkscape:document-units="px"
     inkscape:current-layer="layer1"
     showgrid="false"
     showguides="true"
     inkscape:guide-bbox="true"
     inkscape:window-width="1615"
     inkscape:window-height="1026"
     inkscape:window-x="65"
     inkscape:window-y="24"
     inkscape:window-maximized="1">
    <inkscape:grid
       type="xygrid"
       id="grid6460"
       empspacing="5"
       visible="true"
       enabled="true"
       snapvisiblegridlinesonly="true" />
  </sodipodi:namedview>
  <metadata
     id="metadata3464">
    <rdf:RDF>
      <cc:Work
         rdf:about="">
        <dc:format>
          image/svg+xml
        </dc:format>
        <dc:type
           rdf:resource="http://purl.org/dc/dcmitype/StillImage" />
        <dc:title />
      </cc:Work>
    </rdf:RDF>
  </metadata>
  <g
     inkscape:label="Layer 1"
     inkscape:groupmode="layer"
     id="layer1"
     transform="translate(0,-52.36218)">
    <g
       id="g3467"
       transform="matrix(0.78661544,0,0,0.70862259,106.00747,188.72837)">
      <g
         id="g3417">
        <g
           id="g3407">
          <g
             id="g3304">
            <g
               id="g3108">
              <rect
                 style="fill:#d35f5f;fill-rule:evenodd"
                 rx="17.91893"
                 y="103.23541"
                 x="45.050816"
                 height="210.85863"
                 width="239.32076"
                 id="rect9839" />
              <rect
                 style="fill:#ffffff;fill-rule:evenodd"
                 rx="0"
                 y="147.40727"
                 x="64.260765"
                 height="149.26126"
                 width="200.98346"
                 id="rect9843" />
              <path
                 style="fill:#f4d7d7;stroke:#e4ebeb;stroke-width:6.09031153;stroke-linecap:round;stroke-linejoin:round;stroke-opacity:1"
                 inkscape:connector-curvature="0"
                 id="path9845"
                 d="m 89.562721,128.20801 -0.09034,-27.80577" />
              <path
                 style="fill:#f4d7d7;stroke:#e4ebeb;stroke-width:6.09031153;stroke-linecap:round;stroke-linejoin:round;stroke-opacity:1"
                 inkscape:connector-curvature="0"
                 id="path9845-4"
                 d="m 238.74745,127.47249 -0.0903,-27.805892" />
            </g>
          </g>
        </g>
        <g
           id="g3189"
           transform="translate(-142.85715,64.285707)">
          <path
             style="fill:#164450;fill-opacity:1;fill-rule:evenodd"
             inkscape:connector-curvature="0"
             id="path5372"
             d="m 340.12012,665.46723 30.85209,36.67441 -140.95479,121.1169 -30.85405,-36.66985 140.95675,-121.12146" />
          <path
             style="fill:#164450;fill-opacity:1;fill-rule:evenodd"
             inkscape:connector-curvature="0"
             id="path5376"
             d="m 420.83584,667.58809 c 3.83021,18.67256 -1.43141,37.85156 -15.61169,50.03351 -21.67341,18.61898 -55.96657,13.83759 -76.59654,-10.68945 -20.62822,-24.52121 -19.78284,-59.49687 1.88843,-78.12061 14.1781,-12.18663 33.75239,-14.34938 51.3722,-7.52188 l -22.19884,19.06564 -11.80211,10.14962 3.82631,16.64971 3.83286,16.65403 15.64662,6.49663 15.64042,6.5014 11.81039,-10.1495 22.19195,-19.0691" />
          <path
             style="fill:#164450;fill-opacity:1;fill-rule:evenodd"
             inkscape:connector-curvature="0"
             id="path5378"
             d="m 188.2475,867.44028 c 17.62188,6.82297 37.19413,4.65507 51.37585,-7.52062 21.66801,-18.62584 22.51522,-53.59579 1.88177,-78.12446 -20.62997,-24.52707 -54.9189,-29.30863 -76.59654,-10.68957 -14.17293,12.18442 -19.43546,31.36552 -15.60728,50.033 l 22.1912,-19.06727 11.81297,-10.14581 15.63842,6.49616 15.64522,6.50012 3.83396,16.65149 3.82744,16.64713 -11.81039,10.14938 -22.19262,19.07045" />
        </g>
        <g
           id="g3194"
           transform="matrix(0.91293256,0,0,0.8535122,-142.29379,179.78493)">
          <path
             style="fill:#1f4a7a;fill-opacity:1;fill-rule:evenodd"
             inkscape:connector-curvature="0"
             id="path5252"
             d="m 765.425,673.72309 139.2623,0 65.2762,143.98958 -269.81801,0 65.27951,-143.98958" />
          <path
             style="fill:#9393ac;fill-opacity:1;fill-rule:evenodd"
             inkscape:connector-curvature="0"
             id="path5254"
             d="m 506.89719,193.57489 656.31801,0 c 18.4676,0 33.5772,18.40227 33.5772,40.88785 l 0,434.87823 c 0,22.49073 -15.1096,40.89165 -33.5772,40.89165 l -656.31801,0 c -18.47098,0 -33.58064,-18.40092 -33.58064,-40.89165 l 0,-434.87823 c 0,-22.48558 15.10966,-40.88785 33.58064,-40.88785" />
          <path
             style="fill:#214478;fill-opacity:1;fill-rule:evenodd"
             inkscape:connector-curvature="0"
             id="path5256"
             d="m 495.60367,637.21958 678.90493,0 0,-419.7936 -678.90493,0 0,419.7936 z" />
          <path
             style="fill:#7a7e7d;fill-opacity:1;fill-rule:evenodd"
             inkscape:connector-curvature="0"
             id="path5258"
             d="m 1156.0179,679.40452 c 2.4023,0 4.3632,-2.38782 4.3632,-5.30909 0,-2.92515 -1.9609,-5.30825 -4.3632,-5.30825 -2.3991,0 -4.3599,2.3831 -4.3599,5.30825 0,2.92127 1.9608,5.30909 4.3599,5.30909" />
          <path
             style="fill:#7a7e7d;fill-opacity:1;fill-rule:evenodd"
             inkscape:connector-curvature="0"
             id="path5260"
             d="m 1138.9903,679.40452 c 2.4057,0 4.3633,-2.38782 4.3633,-5.30909 0,-2.92515 -1.9576,-5.30825 -4.3633,-5.30825 -2.3991,0 -4.3598,2.3831 -4.3598,5.30825 0,2.92127 1.9607,5.30909 4.3598,5.30909" />
          <path
             style="fill:#7a7e7d;fill-opacity:1;fill-rule:evenodd"
             inkscape:connector-curvature="0"
             id="path5262"
             d="m 1121.9661,679.40452 c 2.4022,0 4.3631,-2.38782 4.3631,-5.30909 0,-2.92515 -1.9609,-5.30825 -4.3631,-5.30825 -2.4023,0 -4.3599,2.3831 -4.3599,5.30825 0,2.92127 1.9576,5.30909 4.3599,5.30909" />
          <path
             style="fill:#5284bf;fill-opacity:1;fill-rule:evenodd"
             inkscape:connector-curvature="0"
             id="path5264"
             d="m 434.53246,774.19725 801.04744,0 c 9.8271,0 17.8712,9.79044 17.8712,21.75632 l 0,0 c 0,11.96945 -8.0441,21.7591 -17.8712,21.7591 l -801.04744,0 c -9.83029,0 -17.87116,-9.78965 -17.87116,-21.7591 l 0,0 c 0,-11.96588 8.04087,-21.75632 17.87116,-21.75632" />
          <path
             style="fill:#e3dedb;fill-opacity:1;fill-rule:evenodd"
             inkscape:connector-curvature="0"
             id="path5266"
             d="m 1253.4511,795.95357 c 0,11.96945 -8.0441,21.7591 -17.8712,21.7591 l -801.04744,0 c -9.83362,0 -17.87116,-9.78965 -17.87116,-21.7591 l 836.7898,0" />
          <path
             style="fill:#214478;fill-opacity:1;fill-rule:evenodd"
             inkscape:connector-curvature="0"
             id="path5268"
             d="m 1174.5086,217.42598 -678.90493,419.7936 678.90493,0 0,-419.7936" />
          <path
             style="fill:#ff8080;fill-opacity:1;fill-rule:evenodd"
             inkscape:connector-curvature="0"
             id="path5270"
             d="m 557.81182,289.32631 209.26989,0 0,-14.15642 -209.26989,0 0,14.15642 z" />
          <path
             style="fill:#e9c6af;fill-opacity:1;fill-rule:evenodd"
             inkscape:connector-curvature="0"
             id="path5272"
             d="m 557.81182,346.2129 109.85049,0 0,-14.15979 -109.85049,0 0,14.15979 z" />
          <path
             style="fill:#deaa87;fill-opacity:1;fill-rule:evenodd"
             inkscape:connector-curvature="0"
             id="path5274"
             d="m 957.17061,346.2129 155.13309,0 0,-14.15979 -155.13309,0 0,14.15979 z" />
          <path
             style="fill:#5284bf;fill-opacity:1;fill-rule:evenodd"
             inkscape:connector-curvature="0"
             id="path5276"
             d="m 557.81182,395.18218 80.68834,0 0,-14.16011 -80.68834,0 0,14.16011 z" />
          <path
             style="fill:#5284bf;fill-opacity:1;fill-rule:evenodd"
             inkscape:connector-curvature="0"
             id="path5278"
             d="m 667.66231,395.18218 366.39439,0 0,-14.16011 -366.39439,0 0,14.16011 z" />
          <path
             style="fill:#ff8080;fill-opacity:1;fill-rule:evenodd"
             inkscape:connector-curvature="0"
             id="path5280"
             d="m 557.81182,444.1513 198.47721,0 0,-14.1613 -198.47721,0 0,14.1613 z" />
          <path
             style="fill:#5284bf;fill-opacity:1;fill-rule:evenodd"
             inkscape:connector-curvature="0"
             id="path5282"
             d="m 785.45146,444.1513 221.58914,0 0,-14.1613 -221.58914,0 0,14.1613 z" />
          <path
             style="fill:#afa936;fill-opacity:1;fill-rule:evenodd"
             inkscape:connector-curvature="0"
             id="path5284"
             d="m 557.81182,493.12054 80.68834,0 0,-14.15876 -80.68834,0 0,14.15876 z" />
          <path
             style="fill:#5284bf;fill-opacity:1;fill-rule:evenodd"
             inkscape:connector-curvature="0"
             id="path5286"
             d="m 667.66231,493.12054 205.34486,0 0,-14.15876 -205.34486,0 0,14.15876 z" />
          <path
             style="fill:#5284bf;fill-opacity:1;fill-rule:evenodd"
             inkscape:connector-curvature="0"
             id="path5288"
             d="m 557.81182,542.09069 169.70535,0 0,-14.15984 -169.70535,0 0,14.15984 z" />
          <path
             style="fill:#5284bf;fill-opacity:1;fill-rule:evenodd"
             inkscape:connector-curvature="0"
             id="path5290"
             d="m 756.67891,542.09069 210.88156,0 0,-14.15984 -210.88156,0 0,14.15984 z" />
          <path
             style="fill:#5284bf;fill-opacity:1;fill-rule:evenodd"
             inkscape:connector-curvature="0"
             id="path5292"
             d="m 696.82698,346.2129 228.13386,0 0,-14.15979 -228.13386,0 0,14.15979 z" />
          <path
             style="fill:#5284bf;fill-opacity:1;fill-rule:evenodd"
             inkscape:connector-curvature="0"
             id="path5294"
             d="m 1066.2631,395.18218 46.0397,0 0,-14.16011 -46.0397,0 0,14.16011 z" />
          <path
             style="fill:#ffaaaa;fill-opacity:1;fill-rule:evenodd"
             inkscape:connector-curvature="0"
             id="path5296"
             d="m 1039.2503,444.1513 73.0534,0 0,-14.1613 -73.0534,0 0,14.1613 z" />
          <path
             style="fill:#afa936;fill-opacity:1;fill-rule:evenodd"
             inkscape:connector-curvature="0"
             id="path5298"
             d="m 905.21784,493.12054 207.08526,0 0,-14.15876 -207.08526,0 0,14.15876 z" />
          <path
             style="fill:#5284bf;fill-opacity:1;fill-rule:evenodd"
             inkscape:connector-curvature="0"
             id="path5300"
             d="m 999.76763,542.09069 112.53547,0 0,-14.15984 -112.53547,0 0,14.15984 z" />
          <g
             transform="matrix(7.9395378,0,0,7.9571289,2331.802,-7323.8383)"
             id="g3070">
            <g
               id="g3041"
               transform="translate(-58.928571,28.928571)">
              <path
                 style="fill:#ffffff;fill-opacity:1;fill-rule:nonzero"
                 id="path6336"
                 d="m -163.86289,935.26829 c -1.20028,0 -2.1726,-0.95874 -2.1726,-2.14179 0,-1.18224 0.97232,-2.14098 2.1726,-2.14098 1.19987,0 2.1726,0.95874 2.1726,2.14098 0,1.18305 -0.97273,2.14179 -2.1726,2.14179 z m 7.85862,0 c -1.20028,0 -2.17301,-0.95874 -2.17301,-2.14179 0,-1.18224 0.97273,-2.14098 2.17301,-2.14098 0.11643,0 0.22837,0.0166 0.34031,0.0338 l 0,-10.34498 c -8.90243,0 -16.11964,5.47833 -16.11964,12.23633 0,6.75761 7.21721,12.23592 16.11964,12.23592 l 0,-9.91212 c -0.11194,0.0175 -0.22388,0.0338 -0.34031,0.0338"
                 inkscape:connector-curvature="0" />
              <path
                 style="fill:#ffffff;fill-opacity:1;fill-rule:nonzero"
                 id="path6338"
                 d="m -150.61722,933.11835 c 0,-1.18531 0.97224,-2.14657 2.17152,-2.14657 1.19969,0 2.17153,0.96126 2.17153,2.14657 0,1.18613 -0.97184,2.14739 -2.17153,2.14739 -1.19928,0 -2.17152,-0.96126 -2.17152,-2.14739 z m 16.11535,9.4345 c -6.09563,1.84095 -8.16589,-2.71985 -8.16589,-2.71985 1.77748,-1.97216 2.81915,-4.35894 2.81915,-6.93105 0,-6.77562 -7.21324,-12.26819 -16.11127,-12.26819 l 0,10.37192 c 1.03635,0.16231 1.83138,1.04241 1.83138,2.11267 0,1.07106 -0.79503,1.95077 -1.83138,2.11346 l 0,9.93795 c 3.18297,0 6.14748,-0.70571 8.64649,-1.91847 4.98782,5.67346 12.81152,-0.69844 12.81152,-0.69844"
                 inkscape:connector-curvature="0" />
              <rect
                 style="fill:#ffffff;fill-rule:evenodd"
                 rx="1.2650061"
                 y="921.724"
                 x="-163.20828"
                 height="21.915617"
                 width="13.623332"
                 id="rect6430" />
              <rect
                 style="fill:#ffffff;fill-rule:evenodd"
                 transform="matrix(-0.00433465,0.99999061,-0.99999404,-0.00345263,0,0)"
                 rx="1.410623"
                 y="139.36258"
                 x="925.48499"
                 height="24.555952"
                 width="15.191536"
                 id="rect6430-9" />
              <rect
                 style="fill:#ffffff;fill-rule:evenodd"
                 transform="matrix(0.99999998,2.1494598e-4,0.06585384,0.99782928,0,0)"
                 y="939.43756"
                 x="-228.19093"
                 height="4.7763939"
                 width="23.017332"
                 id="rect6474-6" />
              <rect
                 style="fill:#ffffff;fill-rule:evenodd"
                 y="929.74939"
                 x="-159.26086"
                 height="7.0727668"
                 width="7.1466656"
                 id="rect6704" />
              <path
                 style="fill:#a02c2c;fill-opacity:1;fill-rule:nonzero"
                 inkscape:connector-curvature="0"
                 id="path5370-8"
                 d="m -160.81393,925.96243 -0.64255,-1.29647 2.54024,-1.45991 0.64349,1.29662 c 0.76151,-0.26076 1.56424,-0.3974 2.38148,-0.39694 l 0,2.22141 c -2.49809,0 -4.80885,1.7417 -5.5727,4.4486 -0.93574,3.31404 0.80038,6.81682 3.87874,7.82438 l 0,0 c 0.5634,0.18449 1.13383,0.27226 1.69396,0.27226 l 0,2.22187 c -0.29131,0 -0.58448,-0.0181 -0.87813,-0.0546 l -0.39761,1.40679 -2.75521,-0.90162 0.39715,-1.40695 c -0.99989,-0.55722 -1.8546,-1.32568 -2.53041,-2.23838 l -1.20455,0.69175 -1.35583,-2.73566 1.20409,-0.69281 c -0.32831,-1.11198 -0.44492,-2.30464 -0.31847,-3.5088 l -1.30618,-0.42769 0.83738,-2.96749 1.30618,0.42752 c 0.51751,-1.07551 1.23125,-1.99638 2.07893,-2.72459 z m 4.92266,-1.8567 c 0.29083,0 0.58401,0.0182 0.87765,0.0529 l 0.39762,-1.40694 2.75474,0.90227 -0.39668,1.40692 c 0.99942,0.55661 1.8546,1.32568 2.5304,2.23837 l 1.20409,-0.69188 1.3563,2.73519 -1.20362,0.69296 c 0.32736,1.11245 0.44445,2.30451 0.318,3.50926 l 1.30618,0.42706 -0.83738,2.9672 -1.30665,-0.42767 c -0.51704,1.07659 -1.23078,1.99685 -2.07847,2.72507 l 0.64256,1.29692 -2.54071,1.46007 -0.64256,-1.29663 c -0.76198,0.26077 -1.5647,0.3974 -2.38147,0.39694 l 0,-2.22187 c 2.49809,0 4.80885,-1.7417 5.57223,-4.44815 0.93573,-3.31464 -0.80085,-6.81725 -3.87827,-7.82484 -0.56387,-0.18461 -1.13383,-0.27224 -1.69396,-0.27224 l 0,-2.22144" />
              <path
                 style="fill:#ff5555;fill-rule:evenodd"
                 transform="matrix(1.2506664,0,0,1.3946302,-180.8516,-328.76815)"
                 d="m 19.96875,900.34375 c -0.554,0 -1,0.51322 -1,1.15625 l 0,2.6875 c 0,0.64303 0.446,1.15625 1,1.15625 0.554,0 1,-0.51322 1,-1.15625 l 0,-2.6875 c 0,-0.64303 -0.446,-1.15625 -1,-1.15625 z"
                 id="path6750"
                 inkscape:original="M 19.96875 900.34375 C 19.41475 900.34375 18.96875 900.85697 18.96875 901.5 L 18.96875 904.1875 C 18.96875 904.83053 19.41475 905.34375 19.96875 905.34375 C 20.52275 905.34375 20.96875 904.83053 20.96875 904.1875 L 20.96875 901.5 C 20.96875 900.85697 20.52275 900.34375 19.96875 900.34375 z "
                 inkscape:radius="0"
                 sodipodi:type="inkscape:offset" />
              <rect
                 style="fill:#ff5555;fill-rule:evenodd"
                 rx="0.94757664"
                 y="935.13361"
                 x="-156.6983"
                 height="1.7782406"
                 width="1.6327702"
                 id="rect6730-4" />
            </g>
          </g>
        </g>
      </g>
      <text
         style="font-size:400.27764893px;font-style:normal;font-variant:normal;font-weight:300;font-stretch:normal;text-indent:0;text-align:center;text-decoration:none;line-height:125%;letter-spacing:0px;word-spacing:0px;text-transform:none;direction:ltr;block-progression:tb;writing-mode:lr-tb;text-anchor:middle;baseline-shift:baseline;color:#000000;fill:#000000;fill-opacity:1;fill-rule:nonzero;marker:none;visibility:visible;display:inline;overflow:visible;enable-background:accumulate;font-family:Roboto;-inkscape-font-specification:Roboto Light"
         transform="scale(0.9951437,1.00488)"
         sodipodi:linespacing="125%"
         id="text8500-475-9"
         y="271.36081"
         x="94.610634"
         xml:space="preserve"><tspan
           style="font-size:140.09716797px;font-style:italic;font-weight:bold;fill:#a02c2c;-inkscape-font-specification:Roboto Bold Italic"
           y="271.36081"
           x="118.96349"
           id="tspan8502-15-9"
           sodipodi:role="line">             10           </tspan><tspan
           style="font-size:140.09716797px;font-style:italic;font-weight:bold;fill:#a02c2c;-inkscape-font-specification:Roboto Bold Italic"
           id="tspan5628"
           y="446.48227"
           x="94.610634"
           sodipodi:role="line" /></text>
    </g>
  </g>
</svg>
